<?xml version="1.0" encoding="UTF-8" standalone="no"?>
<svg xmlns="http://www.w3.org/2000/svg" viewBox="0 0 70.999999 66.400003">
  <g stroke="#000" stroke-width=".7906729">
    <path fill="#ff9121" stroke-width=".85207656" d="M18.37757296 27.67693944c0 2.58637634-2.58637634 3.77179883-5.064987 5.6038154h5.28051836v2.90967338H8.78642737v-.86212545c0-1.29318816.64659409-2.15531361 1.61648521-3.01743906 2.69414202-2.37084497 4.63392428-3.3407361 4.63392428-4.4183929 0-.6465941-.43106273-1.29318818-1.50871953-1.29318818-1.07765681 0-1.61648522.64659409-1.61648522 1.61648521v.32329705H8.89419305v-.32329705c0-2.37084497 1.7242509-3.98733018 5.064987-3.98733018 2.69414202-.10776569 4.41839291 1.29318816 4.41839291 3.44850178zm8.08242606-3.55626747c-.21553136 1.83201658-2.69414202 5.38828404-4.31062723 7.11253494h3.3407361v-2.47861066c.5388284-.86212545 1.50871953-2.47861066 1.83201658-3.44850179H28.830844v5.92711245h1.6164852v2.47861065H28.830844v2.37084498h-3.23297043v-2.37084498H19.8862925v-2.58637634c1.07765681-1.6164852 2.47861066-4.31062723 3.3407361-7.00476925z" class="st6"/>
    <path fill="#23b0db" stroke-width=".85207656" d="M44.99569611 8.60241394l-7.11253493-7.43583197-.75435976 4.95722131c-2.47861066-.64659408-4.95722132-1.0776568-7.65136334-1.0776568-15.84155507 0-28.77343677 12.93188169-28.77343677 28.77343676 0 12.28528761 7.8668947 22.84632433 18.75122846 26.9414202l1.83201657-5.81934676C11.4805694 51.16985785 5.01462854 44.703917 5.01462854 33.71181756c0-14.44060122 10.02220832-25.86376338 24.35504386-25.86376338 2.47861066 0 4.95722132.32329704 7.22030061 1.0776568l-.75435976 4.41839292z" class="st5"/>
  </g>
  <g fill-rule="evenodd" clip-rule="evenodd">
    <path fill="#010100" d="M51.39807591 19.66122c.42843743-.56831451.8223751-1.09060339 1.29338868-1.54876774 2.58417929-2.51769024 6.05287802-1.95453293 7.64602694 1.58204633.8544033 1.89600349.4495528 4.29230474-.830685 5.41769496-1.34844917 1.18606038-2.9296538 1.80492526-4.72971864 1.85411334-.02140728.00034057-.04232802 0-.06305416.00014596-1.32732894.00973058-1.32125706.01459587-1.45598667 1.30102718-.03113785.29970186-.01264975.44906626.36694017.4461471 2.28131986-.01946117 4.5617445-.03405704 6.8423589-.11433432 2.6598394-.09292704 5.32124544-.12990324 7.98265635-.16298722.99467447-.00973058 1.58414327.51119602 1.78171783 1.54399977.2987288 1.56195268.35034952 3.1514429.34631133 4.731981-.00632487 3.10415228-.16571177 6.20903436-.14041226 9.31235955.03989537 4.92158134.1804536 9.84199502.27809997 14.762506.00324028.16931209.01070364.33862418.01070364.50740109.00130876.82651545-.15374317.9925678-.9564041 1.09697692-1.5758139.2048287-3.16238495.14352605-4.74322468.22720904-2.29722936.12114572-4.5972368.1912059-6.89637334.25056243-.47519287.00973058-.5764882.18390796-.62617742.62460592-.1468831 1.31158487-.00924405 2.61446086.01070364 3.92137504.00778447.46414866.28486273.37365427.54478598.37365427 2.4731777.00131363 4.94773228.01946116 7.42055481-.01459587-7.42055481.01459587-15.44391418.39408848-26.49871408.39846725 2.47350854-.00291918 4.9470268-.01459587 7.4207251.00973058.50304665.00486529.69855346-.12503796.7544897-.64017485.13476853-1.24663325.03940885-2.48616316-.00778447-3.72914744-.01654198-.4213341-.20103378-.54807491-.62858573-.54029045-3.16550359.05838348-6.33203862.075412-9.49805307.13671465-1.7500302.03405703-2.54815669-.70079636-2.67352548-2.45293323-.27308872-3.82178255-.11131783-7.64220282-.02773215-11.46398538.08596967-3.95134522-.07687158-7.9002578-.16415488-11.84980287-.03794926-1.71092786-.06436779-3.4224882-.0637353-5.13370798.00034543-.83332687.21543504-1.06866094 1.04490372-1.1081671 2.06674111-.09876538 4.13556943-.15763539 6.20370688-.23061474 2.42607196-.08514257 4.85282993-.1746639 7.27960736-.24910284.49387072-.01459587.75395452-.1226053.68884235-.71933312-.11632909-1.06725-.07813656-1.08213779-1.15553556-1.2049377-1.4497591-.16541986-2.87215093-.36635634-4.16467359-1.15448466-1.52352662-.93004882-2.2078783-2.24737472-2.17410833-4.00554455.04573373-2.39659317 1.54395111-4.55478714 3.61209343-5.12383145 1.25701577-.34543558 2.41654572-.1595815 3.46161.6576899.88297228.6904333 1.6409212 1.51762989 2.50832456 2.29028658z"/>
    <path fill="#23b0db" d="M35.48246214 58.87025106c-.21280778-1.31693668-.2289119-2.64856654-.25197337-3.97620686-.0561941-3.27356168.09015383-6.54488533.17510179-9.81654955.09282973-3.57034437.0437876-7.13601806-.23689097-10.6966805-.09331626-1.18289794-.02967827-2.3634119-.01070364-3.54528813.00632488-.38873666.2289119-.37170815.49767538-.38046567 4.00813289-.12941671 8.01659661-.26418524 12.02472464-.3960346 4.87431505-.1610411 9.74740405-.32938013 14.6220548-.4748523 1.8362626-.05497778 3.66994173-.19363854 5.50880725-.13671465 1.24990758.03892232 1.40317881.20239606 1.51416094 1.49680645.23776672 2.78197279.2199111 5.56842164.16138167 8.35535703-.1016359 4.8554134-.31098934 9.71087545-.00924405 14.56628885.09020247 1.45374864.22823075 2.90418887.09535968 4.36192705-.19412507.20920746-.45354233.2048287-.70652767.2116401-.46444058.00973059-.92973745.01459588-1.39416343.00291918-3.52776822-.08952133-7.05432011.06762753-10.5770479.16736598-3.38004828.0958462-6.75923054-.01946116-10.13443786.10363067-2.27627942.0822234-4.55308915.18682714-6.82694079.3322993-1.28698595.0822234-2.57638023.02919175-3.8649182.02432646-.2147539-.00131363-.42216122-.03892232-.58652044-.19899036zM54.10727856 25.9066954c-1.97305995-.10752291-1.61201165.08173687-1.85323273 1.64821427-.03551661.22915515-.0613513.46220254-.0637353.69335247-.0047096.44857973-.20468274.59375998-.66029282.59137599-1.0824589-.00486529-1.0824589.01946116-1.19467681-1.06914746-.18911382-1.84375028-.18911382-1.84890749-2.02397521-1.8573731-1.02687783-.00486528-2.01359268-.2048287-2.96099113-.59015966-2.50053036-1.01616446-3.28584654-3.61714846-1.78049664-5.87936232 1.46724495-2.20582516 3.66698362-2.42417937 5.5553778-.565444.5624421.55401057.9984694 1.19973185 1.45096082 1.83596581.6126665.86305378.80228631.86529182 1.40335396.01946116.4280482-.60188502.8336285-1.2183659 1.3565888-1.75019075 1.08437095-1.10461543 2.33861837-1.75641832 3.8668108-1.10806978 1.5746219.66810161 2.36218098 1.98396793 2.49899293 3.67251546.18166993 2.25345634-1.1420441 3.49590543-3.64811602 4.2025888-.61440341.17320431-1.25235483.1712582-1.94656845.1561758z"/>
    <path fill="#158eaa" d="M35.48246214 58.87025106c2.4058129.06568141 4.81300267-.00486529 7.20998506-.1561758 2.88565698-.18390797 5.76940677-.20336913 8.6571461-.22720905 3.31198774-.02432645 6.62693845-.00973058 9.93390034-.15471622 2.76514375-.12114572 5.52680882-.0437876 8.28934964-.10460373.07935288 1.1538035.07828252 1.13735883-1.06082782 1.1730214-6.17617906.19266549-12.35202242.40381907-18.52940808.58947853-3.8366898.11530737-7.67477108.19753077-11.5119766.29580963-.54807005.01459587-1.09736128.0720063-1.64300841.0486529-1.20073896-.05497778-1.35035636-.23596656-1.34516023-1.46308999z"/>
    <path fill="#23b0db" d="M52.27513686 65.9582487c-1.15796333 0-2.3453276.05546431-3.50312065.04962597-.20366104-.00131363-.51206204.13379547-.48798859-.27294277.01897464-.32792054-.13486583-.56631975.42148007-.63701241.70982148-.09000786 1.41909804-.19996342 2.1323836-.24131838 1.6405855-.0939001 3.28219758-.2062883 4.92591146-.09633274.56158582.03892232.83397394.5352792.60781094 1.03898266-.09750041.21699194-.2793163.15520275-.43310811.15617581-1.22116832.0048653-2.44233663.00291917-3.66334925.00291917z"/>
    <path fill="#158eaa" d="M49.03278115 62.22331158c-.56901998.13038977-.75707317-.00973058-.74512888-.51708301.01070363-.47339271.05230186-.71568415.63829684-.7065374 2.26121648.03405702 4.52311897.01946115 6.78520147.00973057.3366294-.00038922.60626378-.02432645.60175365.47436577-.00324028.43836262-.17578292.53581438-.55759142.5453017-2.2794078.05789695-4.55863071.12893018-6.72253166.19266548z"/>
    <path fill="#23b0db" d="M56.2760156 63.94061297c-2.61792494.08319646-5.23656021.16639292-7.8550252.24910285-.16897152-.9498019-.08908346-1.05732481.8054001-1.06510928 2.07834482-.01946116 4.1520287-.18050225 6.23038812-.19071936.96106505-.0048653.98686568.03405703.81923699 1.0060933z"/>
    <path fill="#158eaa" d="M56.2760156 63.94061297c.01410935-.88558007.01264976-.90499258-.87708527-.87575219-2.18156196.07249282-4.36346934.17223127-6.54520645.24472409-.74063335.02432645-.33507251.56539534-.43257292.88037421-.37180546-.88849925-.189649-1.21525212.69717172-1.24035702 2.14951915-.05984306 4.29887288-.11725348 6.44838717-.17855614.8720789-.02432645 1.06844686.29678269.70929116 1.16990762z"/>
    <path fill="#010101" d="M55.3542621 34.846617c2.56893147-.0622757 5.2481688.1274706 7.92948847.1659064 1.15590045.01946115 2.11436743.51849394 2.8825432 1.38101254 1.88839417 2.12077989 2.60875386 7.30192445-.9044574 9.94932332-.76764059.5782397-1.60195997.91535565-2.56963695.9205615-1.62689457.00973059-3.253794.05497778-4.879662.03892233-4.89890423-.04378761-9.7939892.15909498-14.6859604.3322993-3.45883679.12211878-5.53891852-3.00164063-5.73875057-5.30632847-.15043477-1.74016825.0563887-3.41275763 1.00160264-4.93544742.77837828-1.25490424 1.8624038-1.93044975 3.37154376-2.01598154 4.49057504-.25396814 8.9764648-.59380864 13.59328925-.53250599zm-3.51165924 21.39618288c-2.23784363-.02432645-4.58303988-.72955023-6.4587989-2.6394198-.64244694-.65370035-1.12991493-1.42290269-1.48593739-2.2620679-.2585415-.60903699-.14415854-.77022405.5087585-.86203207 2.40755468-.33716459 4.83362177-.41160353 7.2586477-.4943621 2.8058273-.09633275 5.6099323-.1644468 8.41557472.00486528 1.31244115.08027729 1.30049686.05838348.76106757 1.22945877-1.70309474 3.69820419-4.79569196 4.98916022-8.9993122 5.02204958z"/>
    <path fill="#020202" d="M54.76028804 24.26660616c-.43014028.01946116-.78443556-.13671465-1.07779308-.44420097-.79795134-.83760832-.70166725-2.36564993.20054725-3.19289518 1.13805457-1.04350739 2.59629386-1.1042262 3.43424761-.142553.65751961.75470378.69803288 1.77826348.04330108 2.536227-.67794896.7836036-1.56421017 1.1847954-2.60009852 1.24317888zm-5.45666593-1.93842882c-.0047096 1.55416822-1.010944 2.27267424-2.47629635 1.76254859-.49941228-.17417738-.96054933-.42668593-1.37770415-.75450917-.82653978-.65044061-1.03745497-1.5060505-.59483522-2.403064.4597699-.93058401 1.28369702-1.30165968 2.30762162-1.03898267 1.3903539.35711228 2.14467332 1.21530077 2.1412141 2.43400725z"/>
    <path fill="#777" d="M57.1267894 46.19320294c-2.76408799-.22623598-6.12336148.32694748-9.49960024.26369872-1.4516517-.02432645-2.9050549.0958462-4.35792778.09681926-2.3058993.0006325-4.07859688-1.26862435-4.63169277-3.45849135-.54010557-2.140387-.3205253-4.18599816 1.29650246-5.88977404.46337022-.4883778 1.06254527-.71446783 1.69409396-.76229363 1.68006732-.12649754 3.36636222-.16979862 5.04765074-.28656558 4.17384466-.29094433 8.35183942-.30602673 12.52985363-.21601887 1.34827402.02919174 2.69863524.06130265 4.04656382.12211878 1.31139025.05887 2.21065152.8022863 2.73691534 1.95107857.91743312 2.00406158 1.02842985 4.04466148-.07638506 6.01354702-.7591701 1.3526479-1.93288725 2.15508018-3.54455346 2.16427557-1.54154766.00973058-3.08463761.0015569-5.24143524.0015569z"/>
    <path fill="#0b596b" d="M57.25389996 50.90406858c.59084081 0 1.18325311-.02432645 1.77323276.00973058.59672782.03405703.67326856.1780696.39238564.69977465-.60781094 1.1292338-1.46550804 2.04614634-2.6473794 2.54002192-3.25102567 1.35814568-6.47766163 1.37702301-9.60125562-.4077113-.74374714-.42473981-1.28004805-1.08680847-1.73720529-1.81095822-.18059956-.28559252-.15705156-.39019625.2004986-.42036105 1.3015283-.10849597 2.59975308-.2836464 3.90353889-.34981435 2.57031808-.12990324 5.14287905-.20288259 7.71476376-.30018839.00064221.01459587.00064221.02432645.0013039.04378761z"/>
    <path fill="#fcfcfc" d="M54.19645446 22.34218937c-.00324029-.77470011 1.2341635-1.6689404 1.9202521-1.41857258.53681662.19509812.75068504.92927037.39846724 1.42241616-.39394253.55138331-.9818593.80865984-1.6218882.84091672-.53941469.02432645-.64244693-.43982221-.69683114-.8447603z"/>
    <path fill="#fbfbfb" d="M47.49853143 23.20908674c-.62185703-.17806962-1.25407714-.4748523-1.69514486-1.03382546-.29400947-.37316774.01556893-1.0839866.50306125-1.23690267.59291342-.18585407 1.06948317.07784464 1.480931.47339272.38878533.37316773.58235575.80904906.38980704 1.36364346-.10708503.30748632-.30909187.43106469-.67863984.43349733z"/>
    <path fill="#010101" d="M44.63487042 45.55370923c-2.4104933-.04913943-3.7925373-1.8248243-3.76845897-4.40381719.02335339-2.57879828 1.62810603-3.88240406 4.10699558-3.9130554 2.4832148-.02919173 4.02803192 1.57377535 4.06007959 4.39656792.02627256 2.3609306-1.50378328 3.75113854-4.3986162 3.92030467zm15.98540636-8.38960867c2.33393797-.17758308 3.95808365 1.84462603 3.9206647 4.344412-.03892231 2.52844253-1.5856807 3.91860183-4.44761939 3.91860183-2.2038985 0-3.67616929-1.725767-3.67824677-4.31079285-.0013039-2.49258534 1.54983811-3.95100465 4.20520146-3.95222098z"/>
    <path fill="#fdfdfd" d="M41.9457517 41.19664748c.00778446-1.8256514 1.14168893-2.91678997 3.05414197-2.93693227 1.78605766-.01946116 2.960996 1.30608708 2.97034221 3.34980077.00924406 1.84039323-1.23762758 2.87280775-3.4598731 2.86468272-1.53409402-.0048653-2.57257557-1.33289483-2.56461109-3.27755122zm18.56004967-3.02144236c1.93289212.00486529 2.95734703 1.16231777 2.99267877 3.27516723.03211091 1.9105507-.99379872 2.77482081-3.25381347 2.93775937-1.6307187.11725349-2.76357226-1.31693668-2.7599379-3.25157057.0047096-1.85688656 1.13546624-2.96636728 3.0210726-2.96135603z"/>
    <path fill="#0bb243" d="M43.45039613 41.42886777c.00778446-.91934519.61838321-1.60058309 1.42863887-1.59552319.97700374.0048653 1.64698335.5947817 1.64578163 1.4462561-.00156663.97461487-.64280698 1.7193448-1.47781236 1.71623102-.9693993-.00291918-1.6050932-.62737914-1.59660814-1.56696393zm15.61292949-.12985459c0-1.01373181.53196593-1.5782514 1.47764207-1.56783968.8474654.00973058 1.45164683.63190385 1.45770898 1.50235288.00632488.92318876-.57767534 1.53412322-1.46949758 1.53791815-.99795368.00486529-1.46585347-.46560825-1.46585347-1.47243135z"/>
  </g>
</svg>
