<?xml version="1.0" encoding="UTF-8" standalone="no"?>
<svg xmlns="http://www.w3.org/2000/svg" viewBox="0 0 66.999999 66.699996">
  <path fill="#23b0db" stroke="#000" stroke-linejoin="round" stroke-width=".80436" d="M44.51264009 18.95344418c-.40964428-1.63844975-1.09225649-3.2768995-1.91154638-4.77867023l1.63844975-3.82296071-5.73450777-5.59795918-3.82296138 1.63844935c-1.50190077-.81915932-3.00380153-1.5019009-4.77866889-1.91154598L28.53805364.5212477h-8.05556838l-1.50190077 3.95950972c-1.63844975.40964508-3.2768995 1.09225608-4.77866888 1.91154598l-3.8230925-1.63844935-5.59795905 5.59795918 1.63844935 3.82296071c-.81915932 1.5019021-1.50190103 3.00380287-1.91154598 4.77867023L.54825766 20.45534494V28.510912l3.95950977 1.5019021c.40964495 1.63844842 1.09225595 3.27689817 1.91154598 4.77866889l-1.63844935 3.82296138 5.73450737 5.59795878 3.82296178-1.63844975c1.50190077.81915986 3.00380153 1.50190077 4.77866889 1.91154639l1.50190076 3.95950903h7.9190194l1.50190077-3.95950903c1.63844975-.40964562 3.2768995-1.0922565 4.77866888-1.91154639l3.82296138 1.63844975 5.73450777-5.59795878-1.63844975-3.82296138c.81915985-1.5019021 1.5019021-3.00380287 1.91154638-4.77866889l3.95951037-1.5019021v-8.05556705zM24.44199563 34.24541976c-5.46141114 0-9.83056579-4.36915465-9.83056579-9.83056579 0-5.4614098 4.36915465-9.83056444 9.83056579-9.83056444 5.4614098 0 9.83056444 4.36915465 9.83056444 9.83056444 0 5.46141114-4.36915465 9.83056579-9.83056444 9.83056579z"/>
  <path fill="#158eaa" d="M31.54023435 31.51322407c-3.95381134 3.95381134-10.30826201 3.95381134-14.26207335 0l-3.6713678 3.6713678c5.9307847 5.9307847 15.67415964 5.9307847 21.60480894 0 5.9306493-5.93078604 5.93078604-15.5329372 0-21.60481028l-3.6713678 3.6713678c3.95394674 3.95381133 3.95394674 10.30826335 0 14.26207468z"/>
  <path fill="#158eaa" d="M13.6067932 13.5797816c-5.93078563 5.93078604-5.93078563 15.5329372 0 21.60481027l3.6713678-3.6713678c-3.95381133-3.95381133-3.95381133-10.30826335 0-14.26207468 3.95381134-3.95381133 10.30826201-3.95381133 14.26207335 0l3.6713678-3.6713678c-5.9306493-5.93078497-15.67402424-5.93078497-21.60480894 0z"/>
  <path fill="#31e077" stroke="#000" stroke-linejoin="round" stroke-width=".80436" d="M46.8337007 56.5005772c.13654765-.81915986.13654765-1.50190077 0-2.32106063l1.36535313-1.36535178-1.36535312-3.4133171h-1.91154638c-.40964428-.54619327-1.09225515-1.09225649-1.63844842-1.63844975v-1.91154505l-3.4133171-1.36535311-1.36535312 1.36535311c-.81915851-.13654898-1.50190076-.13654898-2.32105928 0l-1.36535312-1.36535311-3.4133171 1.36535311v1.91154505c-.54619327.40964562-1.09225515 1.09225648-1.63844841 1.63844975h-1.91154639l-1.36535312 3.4133171 1.36535312 1.36535178c-.13654898.81915986-.13654898 1.50190077 0 2.32106062l-1.36535312 1.36535312 1.36535312 3.41331577h1.91154639c.40964427.54619326 1.09225514 1.09225648 1.6384484 1.63844975v1.91154638L34.8186233 66.194594l1.36535312-1.36535178c.81915852.13654765 1.50190077.13654765 2.32105928 0l1.36535312 1.36535178 3.4133171-1.36535178v-1.91154638c.54619327-.40964562 1.09225515-1.09225649 1.63844842-1.63844975h1.91154638l1.36535312-3.41331577zm-10.92282092 2.86725388c-2.32106062-.9557075-3.4133171-3.54986476-2.4576096-5.73450777.9557075-2.32106062 3.54986475-3.41331577 5.73450776-2.45760827 2.32106062.9557075 3.41331577 3.54986476 2.45760827 5.73450777-.95583755 2.32105928-3.5499948 3.41331577-5.73450643 2.45760827z"/>
  <path fill="#ff9121" stroke="#000" stroke-linejoin="round" stroke-width=".80436" d="M65.04638395 38.25215666c.13654764-.81915852.13654764-1.50190077 0-2.32106062l1.36535178-1.36535178-1.36535178-3.4133171h-1.91154638c-.40964428-.54619327-1.0922565-1.09225515-1.63844976-1.63844976v-1.91154504l-3.41331576-1.36535312-1.36535312 1.36535312c-.81915851-.13654899-1.50190076-.13654899-2.32106062 0l-1.36535178-1.36535312-3.4133171 1.36535312v1.91154504c-.54619327.40964562-1.09225515 1.09225649-1.63844841 1.63844975h-1.91154639l-1.36535312 3.41331711 1.36535312 1.36535178c-.13654898.81915985-.13654898 1.5019021 0 2.32106062l-1.36535312 1.36535312 1.36535312 3.41331576h1.91154639c.40964427.54619327 1.09225514 1.09225649 1.6384484 1.63844975v1.91154639l3.41331711 1.36535178 1.36535178-1.36535178c.81915986.13654764 1.5019021.13654764 2.32106062 0l1.36535312 1.36535178 3.41331576-1.36535178v-1.91154639c.54619327-.40964561 1.0922565-1.09225648 1.63844976-1.63844975h1.91154638l1.36535178-3.41331576zm-11.05923988 3.00367149c-2.32105927-.9557075-3.41331576-3.54986476-2.45760826-5.73450777.9557075-2.32105928 3.54986475-3.41331577 5.73450777-2.45760827 2.32106062.9557075 3.41331576 3.54986476 2.45760826 5.73450777-.8192899 2.32106062-3.41344715 3.41344715-5.73450777 2.45760827z"/>
</svg>
