<?xml version="1.0" encoding="UTF-8" standalone="no"?>
<svg xmlns="http://www.w3.org/2000/svg" viewBox="0 0 54 63.000001">
  <defs>
    <clipPath id="a">
      <path d="M0 0h500v500H0z"/>
    </clipPath>
  </defs>
  <g clip-path="url(#a)" transform="matrix(.2626 0 0 -.2626 -38.16152058 100.53163052)">
    <path fill="#ff9121" d="M248.387 372.9206s-26.961 15.643-47.332-3.498c0 0-28.343-1.26-31.48-41.579 0 0-32.588-27.869-16.182-65.631 0 0-18.411-26.576 7.164-40.257 0 0-14.79-46.862 38.266-63.772 0 0 21.439-28.09 49.564-5.434z"/>
    <path fill="none" stroke="#1d1d1b" stroke-linecap="round" stroke-miterlimit="10" stroke-width="3" d="M248.387 372.9206s-25.162 21.426-46.072-6.025"/>
    <path fill="#e97021" d="M183.178 227.8504s-24.271-14.086-20.319-34.863c0 0-5.382 16.659-2.302 28.968 0 0 10.835-1.316 22.621 5.895m-8.5138 66.1848s-10.027-20.355-24.527-13.855c0 0 2.25-16.375 4.5-18.75 0 0 3.527 2.125 7.763 5.875 4.237 3.75 8.737 10.875 10.112 15.75s2.152 10.98 2.152 10.98"/>
    <path fill="none" stroke="#1d1d1b" stroke-linecap="round" stroke-miterlimit="10" stroke-width="3" d="M207.8036 373.8885s-40.878-9.146-38.093-49.949m-.1359 6.3574s-32.997-25.887-15.773-70.355"/>
    <path fill="none" stroke="#fff" stroke-linecap="round" stroke-miterlimit="10" stroke-width="3" d="M176.7988 312.1266s3.898-34.376-18.074-48.198c-21.973-13.821-7.797-46.426 9.171-41.464 17.531 5.126 26.269 14.53 38.672 35.085 12.404 20.555 32.959 9.149 32.959 9.149"/>
    <path fill="none" stroke="#1d1d1b" stroke-linecap="round" stroke-miterlimit="10" stroke-width="3" d="M159.199 221.9553s-8.625-79.23 67.924-60.802"/>
    <path fill="none" stroke="#fff" stroke-linecap="round" stroke-miterlimit="10" stroke-width="3" d="M225.3511 343.8403s-34.512-13.039-29.179-53.686c5.334-40.647 51.27-14.885 36.858 10.868m15.2378 30.3121s-31.54 5.6-31.54-36.455m-2.7183-78.7639c.233-1.418.527-2.904.887-4.46 8.683-37.566-31.719-45.363-31.719-14.885m1.4179 78.4989s4.607-24.985-20.201-30.655m68.6353-38.5706s11.813-27.17-18.429-30.951"/>
    <path fill="#fff" d="M234.0972 344.9194c0-3.006-2.437-5.444-5.444-5.444-3.006 0-5.443 2.438-5.443 5.444s2.437 5.444 5.443 5.444c3.007 0 5.444-2.438 5.444-5.444m-11.9261-51.3549c0-3.006-2.437-5.444-5.444-5.444-3.006 0-5.443 2.438-5.443 5.444s2.437 5.444 5.443 5.444c3.007 0 5.444-2.438 5.444-5.444m15.8393 8.3846c0-3.006-2.437-5.444-5.444-5.444-3.006 0-5.443 2.438-5.443 5.444s2.437 5.444 5.443 5.444c3.007 0 5.444-2.438 5.444-5.444m-69.7076-57.335c0-3.006-2.437-5.444-5.444-5.444-3.006 0-5.443 2.438-5.443 5.444s2.437 5.444 5.443 5.444c3.007 0 5.444-2.438 5.444-5.444m21.5854 31.84c0-3.006-2.437-5.444-5.444-5.444-3.006 0-5.443 2.438-5.443 5.444s2.437 5.444 5.443 5.444c3.007 0 5.444-2.438 5.444-5.444m-7.8059 37.3863c0-3.006-2.437-5.444-5.444-5.444-3.006 0-5.443 2.438-5.443 5.444s2.437 5.444 5.443 5.444c3.007 0 5.444-2.438 5.444-5.444"/>
    <path fill="#1d1d1b" d="M241.2592 244.6141c0-3.006-2.437-5.444-5.444-5.444-3.006 0-5.443 2.438-5.443 5.444s2.437 5.444 5.443 5.444c3.007 0 5.444-2.438 5.444-5.444"/>
    <path fill="#fff" d="M188.6216 197.6722c0-3.006-2.437-5.444-5.444-5.444-3.006 0-5.443 2.438-5.443 5.444s2.437 5.444 5.443 5.444c3.007 0 5.444-2.438 5.444-5.444m50.9192 8.3716c0-3.006-2.437-5.444-5.444-5.444-3.006 0-5.443 2.438-5.443 5.444s2.437 5.444 5.443 5.444c3.007 0 5.444-2.438 5.444-5.444m-20.7639 12.3495c0-3.006-2.437-5.444-5.444-5.444-3.006 0-5.443 2.438-5.443 5.444s2.437 5.444 5.443 5.444c3.007 0 5.444-2.438 5.444-5.444m1.2678-43.3001c0-3.006-2.437-5.444-5.444-5.444-3.006 0-5.443 2.438-5.443 5.444s2.437 5.444 5.443 5.444c3.007 0 5.444-2.438 5.444-5.444m14.0525-11.4658c0-3.006-2.437-5.444-5.444-5.444-3.006 0-5.443 2.438-5.443 5.444s2.437 5.444 5.443 5.444c3.007 0 5.444-2.438 5.444-5.444"/>
    <path fill="#23b0db" d="M248.387 372.9206s26.961 15.643 47.332-3.498c0 0 28.343-1.26 31.48-41.579 0 0 32.588-27.869 16.182-65.631 0 0 18.411-26.576-7.164-40.257 0 0 14.79-46.862-38.266-63.772 0 0-21.439-28.09-49.564-5.434z"/>
    <path fill="#158eaa" fill-opacity=".94117647" d="M314.2943 227.8504s24.271-14.086 20.319-34.863c0 0 5.382 16.659 2.302 28.968 0 0-10.835-1.316-22.621 5.895"/>
    <path fill="#158eaa" d="M322.1098 295.1193s10.027-20.355 24.527-13.855c0 0-2.25-16.375-4.5-18.75 0 0-3.527 2.125-7.763 5.875-4.237 3.75-8.737 10.875-10.112 15.75s-2.152 10.98-2.152 10.98"/>
    <path fill="none" stroke="#1d1d1b" stroke-linecap="round" stroke-miterlimit="10" stroke-width="3" d="M248.387 372.9206s25.162 21.426 46.072-6.025m-5.4886 6.9929s40.878-9.146 38.093-49.949m.1358 6.3574s32.997-25.887 15.773-70.355"/>
    <path fill="none" stroke="#fff" stroke-linecap="round" stroke-miterlimit="10" stroke-width="3" d="M319.9752 312.1266s-3.898-34.376 18.074-48.198c21.973-13.821 7.797-46.426-9.171-41.464-17.531 5.126-26.269 14.53-38.672 35.085-12.404 20.555-32.959 9.149-32.959 9.149"/>
    <path fill="none" stroke="#1d1d1b" stroke-linecap="round" stroke-miterlimit="10" stroke-width="3" d="M337.575 221.9553s8.625-79.23-67.924-60.802m31.5105-2.7795s-27.378-25.525-52.531-5.521"/>
    <path fill="none" stroke="#fff" stroke-linecap="round" stroke-miterlimit="10" stroke-width="3" d="M271.4229 343.8403s34.512-13.039 29.179-53.686c-5.334-40.647-51.27-14.885-36.858 10.868m-15.476 30.3121s31.779 5.6 31.779-36.455m2.6126-79.3827c-.215-1.23-.474-2.51-.782-3.841-8.683-37.567 31.718-45.363 31.718-14.885m-1.4171 78.4987s-4.607-24.985 20.201-30.655m-68.6353-38.5706s-11.813-27.17 18.429-30.951"/>
    <path fill="#fff" d="M262.6768 344.9194c0-3.006 2.437-5.444 5.444-5.444 3.006 0 5.443 2.438 5.443 5.444s-2.437 5.444-5.443 5.444c-3.007 0-5.444-2.438-5.444-5.444m11.926-51.3549c0-3.006 2.437-5.444 5.444-5.444 3.006 0 5.443 2.438 5.443 5.444s-2.437 5.444-5.443 5.444c-3.007 0-5.444-2.438-5.444-5.444m-15.8392 8.3846c0-3.006 2.437-5.444 5.444-5.444 3.006 0 5.443 2.438 5.443 5.444s-2.437 5.444-5.443 5.444c-3.007 0-5.444-2.438-5.444-5.444m69.7075-57.335c0-3.006 2.437-5.444 5.444-5.444 3.006 0 5.443 2.438 5.443 5.444s-2.437 5.444-5.443 5.444c-3.007 0-5.444-2.438-5.444-5.444m-21.5853 31.84c0-3.006 2.437-5.444 5.444-5.444 3.006 0 5.443 2.438 5.443 5.444s-2.437 5.444-5.443 5.444c-3.007 0-5.444-2.438-5.444-5.444m7.8059 37.3863c0-3.006 2.437-5.444 5.444-5.444 3.006 0 5.443 2.438 5.443 5.444s-2.437 5.444-5.443 5.444c-3.007 0-5.444-2.438-5.444-5.444"/>
    <path fill="#1d1d1b" d="M255.5147 244.6141c0-3.006 2.437-5.444 5.444-5.444 3.006 0 5.443 2.438 5.443 5.444s-2.437 5.444-5.443 5.444c-3.007 0-5.444-2.438-5.444-5.444"/>
    <path fill="#fff" d="M308.1523 197.6722c0-3.006 2.437-5.444 5.444-5.444 3.006 0 5.443 2.438 5.443 5.444s-2.437 5.444-5.443 5.444c-3.007 0-5.444-2.438-5.444-5.444m-50.9191 8.3716c0-3.006 2.437-5.444 5.444-5.444 3.006 0 5.443 2.438 5.443 5.444s-2.437 5.444-5.443 5.444c-3.007 0-5.444-2.438-5.444-5.444m19.496-30.9506c0-3.006 2.437-5.444 5.444-5.444 3.006 0 5.443 2.438 5.443 5.444s-2.437 5.444-5.443 5.444c-3.007 0-5.444-2.438-5.444-5.444m-14.0524-11.4658c0-3.006 2.437-5.444 5.444-5.444 3.006 0 5.443 2.438 5.443 5.444s-2.437 5.444-5.443 5.444c-3.007 0-5.444-2.438-5.444-5.444"/>
    <path fill="none" stroke="#1d1d1b" stroke-linecap="round" stroke-miterlimit="10" stroke-width="3" d="M195.6124 158.3738s27.622-25.628 52.775-5.624"/>
    <path fill="#fff" d="M289.1319 218.3933c0-3.006-2.437-5.444-5.444-5.444-3.006 0-5.443 2.438-5.443 5.444s2.437 5.444 5.443 5.444c3.007 0 5.444-2.438 5.444-5.444"/>
    <path fill="#1d1d1b" d="M268.9496 218.7613h-41.529c-1.99 0-3.603 1.613-3.603 3.602v43.382c0 1.99 1.613 3.603 3.603 3.603h41.529c1.99 0 3.602-1.613 3.602-3.603v-43.382c0-1.989-1.612-3.602-3.602-3.602"/>
    <path fill="#1d1d1b" d="M234.6594 263.5363h-.397c-.622 0-1.132.509-1.132 1.132v9.359c0 .623.51 1.132 1.132 1.132h.397c.623 0 1.132-.509 1.132-1.132v-9.359c0-.623-.509-1.132-1.132-1.132m6.862 0h-.397c-.622 0-1.132.509-1.132 1.132v9.359c0 .623.51 1.132 1.132 1.132h.397c.623 0 1.132-.509 1.132-1.132v-9.359c0-.623-.509-1.132-1.132-1.132m6.862 0h-.397c-.622 0-1.132.509-1.132 1.132v9.359c0 .623.51 1.132 1.132 1.132h.397c.623 0 1.132-.509 1.132-1.132v-9.359c0-.623-.509-1.132-1.132-1.132m6.862 0h-.397c-.622 0-1.132.509-1.132 1.132v9.359c0 .623.51 1.132 1.132 1.132h.397c.623 0 1.132-.509 1.132-1.132v-9.359c0-.623-.509-1.132-1.132-1.132m6.862 0h-.397c-.622 0-1.132.509-1.132 1.132v9.359c0 .623.51 1.132 1.132 1.132h.397c.623 0 1.132-.509 1.132-1.132v-9.359c0-.623-.509-1.132-1.132-1.132m-27.448-50.5867h-.397c-.622 0-1.132.509-1.132 1.132v9.359c0 .623.51 1.132 1.132 1.132h.397c.623 0 1.132-.509 1.132-1.132v-9.359c0-.623-.509-1.132-1.132-1.132m6.862 0h-.397c-.622 0-1.132.509-1.132 1.132v9.359c0 .623.51 1.132 1.132 1.132h.397c.623 0 1.132-.509 1.132-1.132v-9.359c0-.623-.509-1.132-1.132-1.132m6.862 0h-.397c-.622 0-1.132.509-1.132 1.132v9.359c0 .623.51 1.132 1.132 1.132h.397c.623 0 1.132-.509 1.132-1.132v-9.359c0-.623-.509-1.132-1.132-1.132m6.862 0h-.397c-.622 0-1.132.509-1.132 1.132v9.359c0 .623.51 1.132 1.132 1.132h.397c.623 0 1.132-.509 1.132-1.132v-9.359c0-.623-.509-1.132-1.132-1.132m6.862.0001h-.397c-.622 0-1.132.509-1.132 1.132v9.359c0 .623.51 1.132 1.132 1.132h.397c.623 0 1.132-.509 1.132-1.132v-9.359c0-.623-.509-1.132-1.132-1.132m-32.0737 17.5794v-.397c0-.622-.509-1.132-1.132-1.132h-9.359c-.623 0-1.132.51-1.132 1.132v.397c0 .623.509 1.132 1.132 1.132h9.359c.623 0 1.132-.509 1.132-1.132m0 6.862v-.397c0-.622-.509-1.132-1.132-1.132h-9.359c-.623 0-1.132.51-1.132 1.132v.397c0 .623.509 1.132 1.132 1.132h9.359c.623 0 1.132-.509 1.132-1.132m0 6.862v-.397c0-.622-.509-1.132-1.132-1.132h-9.359c-.623 0-1.132.51-1.132 1.132v.397c0 .623.509 1.132 1.132 1.132h9.359c.623 0 1.132-.509 1.132-1.132m0 6.862v-.397c0-.622-.509-1.132-1.132-1.132h-9.359c-.623 0-1.132.51-1.132 1.132v.397c0 .623.509 1.132 1.132 1.132h9.359c.623 0 1.132-.509 1.132-1.132m0 6.862v-.397c0-.622-.509-1.132-1.132-1.132h-9.359c-.623 0-1.132.51-1.132 1.132v.397c0 .623.509 1.132 1.132 1.132h9.359c.623 0 1.132-.509 1.132-1.132m48.33-27.448v-.397c0-.622-.509-1.132-1.132-1.132h-9.359c-.623 0-1.132.51-1.132 1.132v.397c0 .623.509 1.132 1.132 1.132h9.359c.623 0 1.132-.509 1.132-1.132m0 6.862v-.397c0-.622-.509-1.132-1.132-1.132h-9.359c-.623 0-1.132.51-1.132 1.132v.397c0 .623.509 1.132 1.132 1.132h9.359c.623 0 1.132-.509 1.132-1.132m0 6.862v-.397c0-.622-.509-1.132-1.132-1.132h-9.359c-.623 0-1.132.51-1.132 1.132v.397c0 .623.509 1.132 1.132 1.132h9.359c.623 0 1.132-.509 1.132-1.132m0 6.862v-.397c0-.622-.509-1.132-1.132-1.132h-9.359c-.623 0-1.132.51-1.132 1.132v.397c0 .623.509 1.132 1.132 1.132h9.359c.623 0 1.132-.509 1.132-1.132m0 6.862v-.397c0-.622-.509-1.132-1.132-1.132h-9.359c-.623 0-1.132.51-1.132 1.132v.397c0 .623.509 1.132 1.132 1.132h9.359c.623 0 1.132-.509 1.132-1.132"/>
  </g>
  <text x="163.23271" y="-160.94691" fill="#fff" stroke-width=".19694835" font-family="Bebas" font-size="6.63956261" font-weight="400" style="-inkscape-font-specification:Bebas" transform="translate(-194.67937 254.52384) scale(1.33333)">
    <tspan x="163.23271 167.20317" y="-160.94691">ai</tspan>
  </text>
</svg>
