<?xml version="1.0" encoding="UTF-8" standalone="no"?>
<svg xmlns="http://www.w3.org/2000/svg" width="70" height="65.699997">
  <defs>
    <clipPath id="a">
      <path d="M154.843 323.206h29.795V293.41h-29.795z"/>
    </clipPath>
  </defs>
  <path fill="#ff9121" stroke="#000" stroke-width=".940575" d="M44.70972668 14.68960681c-5.35014048-3.01755848-10.95285192-3.18109003-17.0521776-2.58866437C15.44861429 13.2865462 6.69892368 22.7686174 5.7184868 34.13581614c-1.13819968-.28944081-2.2342624-.8018564-3.39428301-1.00576922-.85452762-.15023834-1.50413916.3483824-1.58740983 1.2091804-.29746691 3.075246-.33082534 6.35114421.89089583 9.24128854 1.12917033 2.67143342 3.52972326 3.2034126 5.90444221 2.64785678.08502638.2051669.17180846.40958133.26235277.61324333 4.4650134 10.00778 16.40532503 12.88086889 26.4193754 12.25282746 5.28919237-.33207942 10.69049916-1.73514003 15.11488048-4.73213166 4.5292221-3.06822317 7.63381348-8.15927147 8.81239442-13.45724237 2.39102195-10.74944074-4.29044596-21.06020557-13.4314084-26.21546259"/>
  <path d="M10.2677003 30.57692194c.01429647-.62051697.15851525-1.50664731.8329575-1.7579642.74993765-.27940822 1.26611547.72736427 1.49285247 1.25884182.25332343.5931781 1.11738202.08151496.86631594-.50664684-.44645118-1.04589967-1.29420678-1.96388355-2.51969018-1.74843323-1.22322606.21494868-1.65136772 1.70905523-1.6756968 2.75420245-.01504892.6473542.98821215.64584932 1.00326107 0"/>
  <path fill="#eb6f62" d="M24.82135656 19.6339012c-.0180587-.0065212-.03561577-.01354403-.05216958-.02257338.01730626.00928016.03486332.0147981.05216958.02257337m1.02934586-1.0759975c-1.63907778-3.52119554-5.11587902-5.26160268-8.37095956-7.01756037-.30273403-.16328074-.7705045-.04013044-.96413389.23952858-1.70905523 2.46701897-3.3398561 4.99297954-3.87961056 7.99197769-.00752446.03034865-.01404565.06195137-.01856033.09455736-.00576875.03360924-.00953098.06596441-.01178832.09781795-.1133685.8294461-.14321551 1.65738729-.11086035 2.49460865.01404566.3546528.35741176.6603966.69250096.70403846.82392815.1083522 1.72711393-.21469787 2.50915594-.42337617 1.28693313-.3433661 2.55605839-.75595722 3.8211706-1.17080567 1.2651122-.41484846 2.52445567-.8459999 3.78455157-1.27614808.46250336-.1577628.9247559-.31577643 1.38901495-.46877374.13518943-.04464512.2708805-.08828697.40682237-.13042394.52445472-.00351141.99247601-.62051697.75269662-1.13544071M2.10970624 36.7422362c-.46701803 1.6019571.0905443 3.3398561.24028102 4.95435397.1148734 1.24003069 1.96940149.84374256 1.5934294-.21545031-.54803136-1.54401879-.57135718-3.19488488-1.06847304-4.73890367-.11938807-.37070496-.65262133-.3860047-.76523738 0"/>
  <path fill="#ff9121" d="M56.99551199 37.35653532c2.10509254 1.85126749 4.89365668 2.72987337 6.8653155.27715087.66741943-.82994772 1.2698777-1.92801696 1.16252877-3.02683865-.10534242-1.07750239-1.10433963-1.87559657-2.18460098-1.68698349-2.25332437.39327834-1.02759016 3.63983116.52545798 4.1743185 1.58766065.54627565 3.15023976.28969163 4.553802-.60722376 1.06746978-.68221753 2.20441539-2.07223574 1.95761316-3.40958275-.0494106-.26636582-.4008028-.3155256-.57486859-.15174324-.47103107.44369221-.78630586 1.04439478-1.18961681 1.55179406-.58189142.73187895-1.38625599 1.2583402-2.26962736 1.54201227-.87534528.2809131-1.9942322.1856033-2.6433421-.49987483-.3549036-.37521964-.74667706-1.57963456.16854785-1.10785104.93253117.48056205-.7639833 2.68221847-1.1138706 3.08101475-1.33860108 1.52570927-3.63205589.47604738-4.95811621-.5239531-.22447966-.16955112-.50790092.20416363-.29922261.3877604"/>
  <path d="M28.24934722 53.49958105c-2.50915594-.51442212-5.00276133-.46300499-7.52972515-.11963888-.87860588.11963888-1.74266448.31301745-2.59869699.54151016-.25357423.0674693-.50739928.13518943-.76097352.20265873-.18760982.04991224-.54176098.06671687-.5487838.10484079-.26536256.0050163-.50739929.16704296-.47705064.50890417.16152503 1.81063542.4632558 3.61349557.65788844 5.42312772.10584405.98344667.02809131 2.39428255.48908978 3.30599604.31903702.63105122.99523498.86380779 1.60897994 1.11061 1.0958119.44143488 2.23300833.70052705 3.40005177.86255371 1.9581148.27188375 5.00752681.50815174 5.74743185-1.8565346.36368214-1.1630304.10208182-2.58164156.00351142-3.76624207-.1346878-1.61800929.5061452-3.18786205.9051923-4.7379004.16553808-.64283953-.20290955-1.4374223-.8969154-1.57988537m19.39654899 0c-2.50915594-.51442212-5.00276133-.46300499-7.52997596-.11963888-.87860589.11963888-1.74241367.31301745-2.59844618.54151016-.25357423.0674693-.50739928.13518943-.76122433.20265873-.18760982.04991224-.54176098.06671687-.548533.10484079-.26561336.0050163-.50739928.16704296-.47705063.50890417.16127422 1.81063542.46300498 3.61349557.65788845 5.42312772.10584404.98344667.0280913 2.39428255.48883895 3.30599604.31928784.63105122.9954858.86380779 1.60923076 1.11061 1.0958119.44143488 2.23275751.70052705 3.39980095.86255371 1.9581148.27188375 5.00802845.50815174 5.74768267-1.8565346.36343133-1.1630304.101831-2.58164156.00351142-3.76624207-.1346878-1.61800929.5058944-3.18786205.9051923-4.7379004.16553808-.64283953-.20265874-1.4374223-.8969154-1.57988537"/>
  <path fill="#fff" d="M44.45083526 19.34142669c4.4732903 2.74893533 6.81665734 7.11462588 8.58766394 11.91397602.45773787 1.24078313 2.42989832.7373969 2.00802704-.5535493-1.54978754-4.74316752-4.80612216-11.19388539-10.16077731-12.3917791-.62202186-.13920248-.9904695.6899928-.43491367 1.03135238"/>
  <path fill="#f7a49a" d="M28.14440798 17.11717253l.52796614-2.41108717s7.78204531-2.69174945 13.0945635 1.20040187l-.14572368 1.97266208s-5.99172592-4.17582339-13.47680596-.76197678"/>
  <path fill="#eb6f62" d="M27.91478576 18.11576673l.53122674-2.41083635s3.96863643-1.34774606 8.1901561-.74516012c1.73417163.24753811 3.51101747.82419665 5.07295525 1.95860438l-.141209 2.00652214s-6.1013322-4.21796035-13.6531291-.80913005"/>
  <path fill="#bc9c15" stroke="#000" stroke-width=".940575" d="M39.33066777 5.2919845c0 2.62302607-2.12666265 4.74968872-4.74968872 4.74968872-2.62327689 0-4.74993954-2.12666265-4.74993954-4.74968872 0-2.62327688 2.12666265-4.74993954 4.74993954-4.74993954 2.62302607 0 4.74968872 2.12666266 4.74968872 4.74993954"/>
  <path fill="#ff9121" d="M39.33066777 5.2919845c0 2.62327688-2.12666265 4.74993954-4.74993954 4.74993954-2.62302607 0-4.74968872-2.12666266-4.74968872-4.74993954 0-2.62302607 2.12666265-4.74968872 4.74968872-4.74968872 2.62327689 0 4.74993954 2.12666265 4.74993954 4.74968872"/>
  <g fill="#fff" clip-path="url(#a)" opacity=".5" transform="matrix(.25082 0 0 -.25082 -8.11946724 82.74699906)">
    <path d="M169.7407 319.0239c-5.909 0-10.716-4.807-10.716-10.716 0-5.909 4.807-10.716 10.716-10.716 5.909 0 10.715 4.807 10.715 10.716 0 5.909-4.806 10.716-10.715 10.716m0-25.614c-8.214 0-14.898 6.684-14.898 14.898 0 8.214 6.684 14.898 14.898 14.898 8.214 0 14.897-6.684 14.897-14.898 0-8.214-6.683-14.898-14.897-14.898"/>
  </g>
  <path fill="#fff" d="M35.03299886 4.93622784c0-.30850278-.24178592-.48357184-.53373489-.48357184-.12089296 0-.2876851.07499377-.2876851.22096826 0 .42939573 1.6511169.32932044 1.6511169 1.3092557 0 .65036398-.60897947.883873-1.10509207.883873-.04966142 0-.1000753-.00401305-.14572367-.0082769v.26686744h-.26711826v-.32932045c-.20416363-.07123154-.35841502-.19613754-.45849031-.31276664l-.0458992.32104354h-.7296216V5.75338398h.7755208c0 .35038893.35038893.40882889.52545798.41685498.14572368 0 .35440198-.03310762.35440198-.20842749 0-.3253074-1.60120467-.18760982-1.60120467-1.25056492 0-.61725638.58389794-.89666459.99247601-.89666459.062453 0 .124906.00401305.187359.01254077v-.30850278h.26711827v.37095578c.17481824.06671686.32505659.17531987.41685497.35038893l.04163534-.35038893h.71733166v1.04665211zM55.58760924 37.7041143c1.7511922 0 1.7511922-2.71582771 0-2.71582771-1.75144301 0-1.75144301 2.71582771 0 2.71582771"/>
  <path fill="#ff9121" d="M29.00569109 52.70927985c-3.2037823-1.20209287-5.7562965-.9513235-8.20722953-.61828681-.85217236.1160375-1.69023481.30359806-2.52051153.52521709-.2459447.0654391-.49213469.13112347-.73807939.19656004-.1819621.04841366-.52545984.06471085-.53227204.10168739-.25737929.00485502-.32471488 1.0325844-.29527879 1.36415952.15666543 1.75615688.44931695 3.50477458.63809379 5.2599602.10265839.95385798.02724627 2.32224592.47437592 3.20652892.30943674.6120648.9652918.83781819 1.56056785 1.07719496 1.0628423.4281536 2.16582702.67945046 3.29775475.8366019 1.89920044.2637037 4.85686861.49286319 5.5745114-1.80067691.35273744-1.12803815.099007-2.50396755.00341368-3.65292729-.13063544-1.56932812 1.29451274-3.79509796 1.68155646-5.29849794.16055704-.62349838-1.00040472-1.62855835-1.67352798-1.76673678m18.17677323.10045049c-2.43366313-.4989447-4.31651114-.41559131-6.76768951-.08255606-.85217129.11603931-1.6899897.6384324-2.52026678.86005046-.24594495.06543936-.69050492-.72945313-.8918684-.56107853-.20136348.16837457-.41352153.17833162-.23067982.5704522-.25762187.00486537-.53948573.91965703-.51005018 1.25123267.15642196 1.75615886.44907456 3.50477639.63809457 5.25996218.10265951.95385772.02724612 2.3222458.47413127 3.2065286.30968142.61206479.96553463.83781841 1.56081386 1.0771951 1.06284223.42815343 2.16558058.6794503 3.2975112.83660207 1.89920104.2637036 4.857352.49286298 5.57475226-1.80067709.35249677-1.12803832.09876721-2.50396775.00340576-3.6529272-.13063545-1.56932828 1.26078876-3.66116454 1.648073-5.16456687.16055753-.62349843-.19656135-1.3941746-.86992993-1.5323514"/>
  <path fill="#fff" d="M33.21689765 35.41434013V30.0239225c2.06927534.2515128 3.51598285 1.21020481 3.51598285 2.0810513 0 .58258977.47223416 1.0548214 1.05482393 1.0548214.58258978 0 1.0548214-.47223163 1.0548214-1.0548214 0-2.15647859-2.39789951-3.8902771-5.62562818-4.20350428v-.12122631c0-.58258978-.47223163-1.05482394-1.05482393-1.05482394-.58258978 0-1.0548214.47223416-1.0548214 1.05482394v.1212263c-3.2277312.3132272-5.6256282 2.0470257-5.6256282 4.20350428 0 3.08011077 3.04297746 4.19185729 5.6256282 4.91805957V42.413451c-2.06927535-.2515128-3.51598538-1.2102048-3.51598538-2.08105129 0-.5825923-.47223163-1.0548214-1.0548214-1.0548214-.58259231 0-1.05482141.4722291-1.05482141 1.0548214 0 2.15647606 2.39789699 3.89027709 5.62562818 4.20350428v.12122631c0 .58258978.47223163 1.0548214 1.0548214 1.0548214.58259231 0 1.05482394-.47223162 1.05482394-1.0548214v-.12122631c3.22772867-.3132272 5.62562819-2.04702822 5.62562819-4.20350428 0-3.08036869-3.04310894-4.19185728-5.62562819-4.91805957zm-5.62563071-3.3094953c0-.87084648 1.44671003-1.82954102 3.51598537-2.08105382v4.79062288c-2.59791623-.8149556-3.51598537-1.5555156-3.51598537-2.70956906zM33.21689765 42.413451v-4.79062034c2.59791624.8148241 3.51598285 1.55551559 3.51598285 2.70956905 0 .87084649-1.44683647 1.8295385-3.51598285 2.0810513z"/>
</svg>
