<?xml version="1.0" encoding="UTF-8" standalone="no"?>
<svg xmlns="http://www.w3.org/2000/svg" viewBox="0 0 71.599997 48.999999">
  <path fill="#23b0db" stroke="#000" stroke-width=".9044075" d="M41.61927004.5994596H4.2776694c-2.03345196 0-3.60475887 1.57131777-3.60475887 3.60475164v22.83014193c0 2.03347005 1.57130691 3.60475164 3.60475887 3.60475164h4.06690754l-1.386446 9.24297331 11.18399844-9.24297331h23.47714066c2.03347004 0 3.60475163-1.5712816 3.60475163-3.60475164V4.20421124c.09224958-2.03343387-1.57128159-3.60475163-3.60475163-3.60475163z" class="st5"/>
  <path fill="#fff" d="M10.93260996 7.53168011h24.40144765V9.9348529H10.93260996zm0 6.65494952h24.40144765v2.40317278H10.93260996zm0 6.65494951h24.40144765v2.40317278H10.93260996z" class="st2"/>
  <path fill="#ff9121" stroke="#000" stroke-width=".9044075" d="M71.01190204 27.58893591c0-8.31866875-9.3353676-15.06605592-20.79667188-15.06605592-11.4612681 0-20.79667188 6.74738717-20.79667188 15.06605592s9.33540377 15.06601974 20.79667188 15.06601974c3.05020507 0 5.91551305-.4621161 8.50352966-1.2940264l7.02467854 6.4700958-1.38645685-9.15054286c4.06690392-2.77287753 6.65492053-6.65492053 6.65492053-11.09154628z" class="st8"/>
  <path fill="#fff" d="M52.15626774 24.26146975c0 2.95775124-3.8820485 3.78961877-3.8820485 4.89877548v.46214863h-3.88204848v-1.10915671c0-1.57130534 2.95775123-2.4956026 2.95775123-4.2517674 0-.83186753-.55457836-1.47887561-1.47887562-1.47887561-1.20158643 0-1.47887561.92429726-1.47887561 1.84859452v.55457835h-4.15933767c0-.27728917-.09242973-.55457835-.09242973-.83186753 0-2.77289178 2.58803233-4.52905657 6.19279164-4.52905657 3.51232959 0 5.82307274 1.7561648 5.82307274 4.43662684zm-3.51232959 10.72184822h-4.52905657v-3.97447822h4.52905657zm5.08363493 0h-3.32747014v-2.95775123h3.32747014zm4.6214863 0h-3.32747014v-2.95775123h3.32747014z" class="st2"/>
</svg>
