<?xml version="1.0" encoding="UTF-8" standalone="no"?>
<svg xmlns="http://www.w3.org/2000/svg" viewBox="0 0 23.646564 17.46608">
  <path fill="#0bb243" stroke="#000" stroke-linecap="round" stroke-linejoin="round" stroke-width=".4678801" d="M22.753762 1.573233c.840189 3.229475.866445 8.743214-.813933 12.156481 0 0-3.492035 1.155259-11.578851.157536-.603886 1.33905-2.441799 3.518289-4.095921 3.255731 1.916681-1.916681 1.286539-3.334499 1.286539-3.334499-2.205495-.07877-6.537718-1.15526-6.537718-1.15526C-.193893 9.423747.35748 3.804984 1.355205 1.652 5.346101-.317192 18.001445.050391 22.753762 1.57323" class="st15"/>
  <path fill="#f2f2f2" d="M21.80855 9.791328c-.05251 1.050237-.525119 2.152985-.945213 3.124453 0 .02626-.02626.02626-.05251.02626-1.102747.07877-2.205495.183791-3.281987.157536-.07877 0-.288816-.105025-.105025-.105025 1.076494.05251 2.152986-.07877 3.229477-.157535.05251 0 .393838-1.050236.44635-1.181515.210048-.603885.446351-1.260284.472607-1.916681-.02626-.05251.236303 0 .236303.05251m-7.194114-7.798003c-4.043409-.498862-8.218096-.236303-12.182737.656398-.131279.02626-.262559-.157535-.07876-.183792 3.990897-.8927 8.19184-1.155259 12.261505-.656397.131279 0 .183791.210047 0 .183791" class="st16"/>
  <path fill="#fff" d="M6.002499 6.141759h-.918957v2.599334h-.577629V6.141759h-.918957v-.472606h2.415543zm1.339051.971468c.105023 0 .210046-.02626.288814-.05251.07876-.02626.157535-.05251.183792-.105023.05251-.05252.07877-.105024.105023-.157536.02626-.05251.02626-.13128.02626-.210047 0-.157536-.05252-.262559-.157536-.367582-.105023-.07876-.262558-.13128-.472606-.13128h-.367582v1.02398zm1.444074 1.60161h-.525119c-.105023 0-.157535-.02626-.210046-.105024l-.630142-.971468c-.02626-.02626-.05251-.05252-.07876-.07877-.02626-.02626-.07877-.02626-.13128-.02626h-.236303V8.71483h-.57763V5.669146H7.3153c.210047 0 .393838.02626.525118.05251.157536.05251.262559.105023.367583.183791.105023.07876.157536.157535.210047.288815.05251.105023.07876.236303.07876.367583 0 .105023-.02626.210047-.05251.288814-.02626.07876-.07876.183792-.131279.236303-.05252.07876-.131279.13128-.210047.183792-.07876.05251-.183791.105024-.288815.131279.02626.02626.07876.05251.105024.07876.02626.02626.05251.05251.07877.105024zm1.522841-1.181515v1.181515h-.577629V7.533322L8.628088 5.669153h.498862c.05251 0 .07876 0 .105024.02626.02626.02626.05251.05252.07877.07877l.551374 1.02398c.02626.05251.05251.105024.07876.183792.02626.05251.05252.105023.07876.157535.02626-.05251.05251-.105024.05251-.157535.02626-.05251.05251-.105024.07876-.183792l.551374-1.02398c.02626-.02626.02626-.05251.07876-.07877.02626-.02626.07877-.05251.131279-.05251h.498862zm5.566251-1.864169v3.045684h-.498863V6.483085l-.918955 1.73289c-.05252.07876-.105025.131279-.210048.131279h-.07877c-.07877 0-.157535-.05251-.210047-.131279l-.945212-1.73289v2.231752h-.446345V5.669153h.525114c.02626 0 .02626.02626.05251.02626 0 0 .02626.02626.02626.05252l.918957 1.706633c.02626.05251.05251.07876.05251.131279.02626.05251.05251.105024.05251.157535.02626-.05251.05251-.105023.05251-.157535.02626-.05251.05251-.105023.07876-.131279l.8927-1.680378c0-.02626.02626-.02626.02626-.05251 0 0 .02626-.02626.05251-.02626h.10503zm1.260283.44635v.840189h1.076492v.44635h-1.076492v.866445h1.365308v.44635h-1.916682V5.669153h1.916682v.44635zm2.363032-.44635v1.207771c0 .13128 0 .262559-.02626.367583 0 .13128-.02626.262558-.05252.393838h-.367583c-.02626-.13128-.02626-.262558-.05251-.393838 0-.13128-.02626-.262559-.02626-.367583V5.669153zm-.57763 2.783125c0-.05251 0-.07877.02626-.131279.02626-.05251.05252-.07876.07877-.105024.02626-.02626.05251-.05251.105023-.07877.05251-.02626.07876-.02626.13128-.02626.05251 0 .07876 0 .131279.02626.05251.02626.07876.05251.105024.07877.02626.02626.05251.05251.07876.105024.02626.05251.02626.07876.02626.131279 0 .05251 0 .07876-.02626.13128-.02626.02626-.05251.07876-.07876.105023-.02626.02626-.05251.05251-.105024.05251-.05251.02626-.07876.02626-.131279.02626-.05251 0-.07877 0-.13128-.02626s-.07877-.02626-.105023-.05251c-.02626-.02626-.05251-.05251-.07877-.105023-.02626-.05252-.02626-.105024-.02626-.13128z" class="st17"/>
</svg>
