<?xml version="1.0" encoding="UTF-8"?>
<svg width="109px" height="40px" viewBox="0 0 109 40" version="1.1" xmlns="http://www.w3.org/2000/svg" xmlns:xlink="http://www.w3.org/1999/xlink">
    <!-- Generator: Sketch 48.1 (47250) - http://www.bohemiancoding.com/sketch -->
    <title>bonsai-logo-color</title>
    <desc>Created with Sketch.</desc>
    <defs></defs>
    <g id="Page-1" stroke="none" stroke-width="1" fill="none" fill-rule="evenodd">
        <g id="bonsai-logo-color">
            <path d="M47.443428,29.755904 C47.443428,32.222223 45.416651,34.249 42.950332,34.249 L34.892062,34.249 L34.892062,16.91151 L42.75498,16.91151 C45.19688,16.91151 46.710858,19.158058 46.710858,21.331349 C46.710858,23.089517 45.734098,24.676752 44.22012,25.360484 C46.198059,25.94654 47.443428,27.753546 47.443428,29.755904 Z M46.588763,29.682647 C46.588763,27.704708 45.123623,25.873283 43.121265,25.873283 L35.722308,25.873283 L35.722308,33.467592 L42.950332,33.467592 C45.001528,33.467592 46.588763,31.587329 46.588763,29.682647 Z M42.584047,17.692918 L35.722308,17.692918 L35.722308,25.116294 L42.437533,25.116294 C44.439891,25.116294 45.880612,23.26045 45.880612,21.404606 C45.880612,19.426667 44.513148,17.692918 42.584047,17.692918 Z M55.867983,34.49319 C52.424904,34.49319 49.763233,31.489653 49.763233,27.948898 C49.763233,24.383724 52.498161,21.355768 55.867983,21.355768 C59.262224,21.355768 61.997152,24.383724 61.997152,27.948898 C61.997152,31.489653 59.286643,34.49319 55.867983,34.49319 Z M50.593479,27.973317 C50.593479,31.123368 52.962122,33.711782 55.843564,33.711782 C58.725006,33.711782 61.142487,31.07453 61.142487,27.924479 C61.142487,24.774428 58.725006,22.137176 55.867983,22.137176 C53.01096,22.137176 50.593479,24.798847 50.593479,27.973317 Z M75.110155,27.069814 L75.110155,34.249 L74.279909,34.249 L74.279909,27.16749 C74.279909,23.699992 73.351987,22.137176 71.203115,22.137176 C68.88331,22.137176 66.539086,23.919763 65.855354,26.312825 L65.855354,34.249 L65.025108,34.249 L65.025108,21.55112 L65.806516,21.55112 L65.806516,24.72559 C66.856533,22.723232 69.078662,21.355768 71.349629,21.355768 C74.0113,21.355768 75.110155,23.284869 75.110155,27.069814 Z M82.777721,34.49319 C80.824201,34.49319 79.090452,33.833877 77.796245,32.490832 L78.260206,31.929195 C79.603251,33.174564 80.995134,33.785039 82.753302,33.785039 C85.121945,33.785039 86.733599,32.710603 86.733599,30.903597 C86.733599,29.194267 85.24404,28.754725 82.484693,28.095412 C79.700927,27.436099 78.382301,27.045395 78.382301,25.018618 C78.382301,22.503461 80.482335,21.355768 82.924235,21.355768 C84.951012,21.355768 86.513828,22.112757 87.19756,23.162774 L86.635923,23.577897 C85.927772,22.601137 84.413794,22.063919 82.850978,22.063919 C80.84862,22.063919 79.188128,22.918584 79.188128,24.896523 C79.188128,26.483758 80.213726,26.801205 82.655626,27.362842 C85.756839,28.095412 87.563845,28.608211 87.563845,30.805921 C87.563845,33.052469 85.659163,34.49319 82.777721,34.49319 Z" id="Bons" fill="#8DC63F"></path>
            <path d="M90.347302,34.249 L89.443799,34.249 L96.916013,16.91151 L97.624164,16.91151 L105.096378,34.249 L104.168456,34.249 L101.604461,28.266345 L92.911297,28.266345 L90.347302,34.249 Z M101.335852,27.533775 L97.282298,17.985946 L93.155487,27.533775 L101.335852,27.533775 Z M108.808066,34.249 L107.97782,34.249 L107.97782,16.935929 L108.808066,16.935929 L108.808066,34.249 Z" id="AI" fill="#000000"></path>
            <path d="M25.96,11.07 C25.96,11.7172777 25.4352777,12.242 24.788,12.242 C24.1407223,12.242 23.616,11.7172777 23.616,11.07 C23.616,10.4227223 24.1407223,9.898 24.788,9.898 C25.4352777,9.898 25.96,10.4227223 25.96,11.07" id="Shape" fill="#8DC63F" fill-rule="nonzero"></path>
            <path d="M23.213,39.917 L2.23,39.917 C2.07674098,39.917 1.9525,39.792759 1.9525,39.6395 C1.9525,39.486241 2.07674098,39.362 2.23,39.362 L23.213,39.362 C23.366259,39.362 23.4905,39.486241 23.4905,39.6395 C23.4905,39.792759 23.366259,39.917 23.213,39.917" id="Shape" fill="#1B1A19" fill-rule="nonzero"></path>
            <path d="M24.95,17.908 C24.95,18.5555539 24.4250539,19.0805 23.7775,19.0805 C23.1299461,19.0805 22.605,18.5555539 22.605,17.908 C22.605,17.2607223 23.1297223,16.736 23.777,16.736 C24.4242777,16.736 24.949,17.2607223 24.949,17.908 M3.537,19.934 C3.537,20.5812777 3.01227773,21.106 2.365,21.106 C1.71772227,21.106 1.193,20.5812777 1.193,19.934 C1.193,19.2867223 1.71772227,18.762 2.365,18.762 C3.01227773,18.762 3.537,19.2867223 3.537,19.934 M8.55,9.276 C8.55000001,9.69471528 8.32661808,10.0816242 7.96400001,10.2909818 C7.60138194,10.5003394 7.15461806,10.5003394 6.79199999,10.2909818 C6.42938192,10.0816242 6.20599999,9.69471528 6.206,9.276 C6.206,8.62844613 6.73094613,8.1035 7.3785,8.1035 C8.02605387,8.1035 8.551,8.62844613 8.551,9.276 M17.687,7.343 C17.687,7.99055387 17.1620539,8.5155 16.5145,8.5155 C15.8669461,8.5155 15.342,7.99055387 15.342,7.343 C15.342,6.69544613 15.8669461,6.1705 16.5145,6.1705 C17.1620539,6.1705 17.687,6.69544613 17.687,7.343 M13.843,2.48 C13.843,3.12727773 13.3182777,3.652 12.671,3.652 C12.0237223,3.652 11.499,3.12727773 11.499,2.48 C11.499,1.83272227 12.0237223,1.308 12.671,1.308 C13.3182777,1.308 13.843,1.83272227 13.843,2.48 M19.027,19.225 C18.9984744,19.2251181 18.974593,19.2034077 18.972,19.175 C18.9059283,18.501494 18.4315237,17.9384119 17.779,17.759 C17.7598863,17.7538197 17.7449882,17.7388358 17.7399176,17.7196926 C17.7348471,17.7005495 17.7403745,17.6801554 17.7544176,17.6661926 C17.7684608,17.6522298 17.7888863,17.6468196 17.808,17.652 C18.5046131,17.8438401 19.0110967,18.4449415 19.082,19.164 C19.0833881,19.1785998 19.0788878,19.1931494 19.0694991,19.2044159 C19.0601103,19.2156824 19.0466108,19.2227326 19.032,19.224 L19.027,19.224 M20.508,15.859 C20.2605764,16.0017656 20.1757344,16.3180764 20.3185,16.5655 C20.4612656,16.8129236 20.7775764,16.8977656 21.025,16.755 C21.185055,16.6626468 21.2836821,16.4919207 21.2837294,16.3071324 C21.2837767,16.1223442 21.1852371,15.9515675 21.0252294,15.8591324 C20.8652217,15.7666973 20.668055,15.7666468 20.508,15.859 M10.16,20.427 C9.999945,20.5193531 9.90131791,20.6900793 9.90127059,20.8748676 C9.90122328,21.0596558 9.99976292,21.2304325 10.1597706,21.3228676 C10.3197783,21.4153027 10.516945,21.4153532 10.677,21.323 C10.9244236,21.1802344 11.0092656,20.8639236 10.8665,20.6165 C10.7237344,20.3690765 10.4074236,20.2842344 10.16,20.427" id="Shape" fill="#8DC63F" fill-rule="nonzero"></path>
            <path d="M18.07,17.751 L18.167,17.921 L20.617,16.506 L20.519,16.337 L18.069,17.751 M14.826,27.651 L14.828,27.876 L17.82,26.141 L17.722,25.971 L14.826,27.651 M14.697,10.122 C14.697,10.4078074 14.4653074,10.6395 14.1795,10.6395 C13.8936926,10.6395 13.662,10.4078074 13.662,10.122 C13.662,9.83619264 13.8936926,9.6045 14.1795,9.6045 C14.4653074,9.6045 14.697,9.83619264 14.697,10.122" id="Shape" fill="#8DC63F" fill-rule="nonzero"></path>
            <path d="M14.276,13.094 L14.276,10.152 C14.276,10.0920771 14.2274229,10.0435 14.1675,10.0435 C14.1075771,10.0435 14.059,10.0920771 14.059,10.152 L14.059,17.602 C14.059,17.685 14.149,17.737 14.221,17.696 L15.797,16.801 C15.8309462,16.7818807 15.8519636,16.7459601 15.852,16.707 L15.852,12.57 C15.8521682,12.5313315 15.83165,12.4955238 15.7982038,12.4761168 C15.7647577,12.4567098 15.723488,12.4566652 15.69,12.476 L14.438,13.187 C14.4044344,13.2056808 14.3635138,13.2053142 14.3302882,13.1860352 C14.2970626,13.1667562 14.2764381,13.1314113 14.276,13.093 M11.188,22.101 L11.188,21.466 C11.188,21.4060771 11.2365771,21.3575 11.2965,21.3575 C11.3564229,21.3575 11.405,21.4060771 11.405,21.466 L11.405,23.78 C11.405,23.863 11.315,23.915 11.243,23.874 L9.667,22.979 C9.63343906,22.9596241 9.61283183,22.9237522 9.613,22.885 L9.613,21.579 C9.613,21.495 9.703,21.443 9.775,21.484 L11.026,22.196 C11.0596433,22.2154288 11.1011295,22.2152905 11.1346425,22.1956378 C11.1681556,22.1759851 11.1885306,22.1398468 11.188,22.101 M15.013,23.468 L16.202,22.793 C16.2284698,22.7781832 16.2607878,22.7784073 16.2870496,22.7935899 C16.3133113,22.8087725 16.3296321,22.8366676 16.33,22.867 L16.33,24.967 C16.33,24.997 16.313,25.027 16.286,25.041 L15.098,25.717 C15.0713749,25.7319008 15.038848,25.7315789 15.012523,25.7161541 C14.986198,25.7007293 14.9700165,25.6725111 14.97,25.642 L14.97,23.542 C14.97,23.512 14.986,23.484 15.013,23.468 M19.88,17.803 L20.612,17.387 C20.6283819,17.3777775 20.6484234,17.3779232 20.6646694,17.3873829 C20.6809155,17.3968427 20.6909347,17.4142006 20.691,17.433 L20.691,18.725 C20.691,18.744 20.681,18.761 20.664,18.771 L19.933,19.186 C19.9168595,19.1958076 19.8966703,19.1960927 19.8802594,19.1867447 C19.8638484,19.1773967 19.8537963,19.1598855 19.854,19.141 L19.854,17.849 C19.854,17.829 19.864,17.812 19.881,17.803 M17.68,23.405 L18.411,22.989 C18.4273819,22.9797775 18.4474234,22.9799232 18.4636694,22.9893829 C18.4799155,22.9988427 18.4899347,23.0162006 18.49,23.035 L18.49,25.728 C18.49,25.747 18.48,25.764 18.463,25.774 L17.732,26.189 C17.7156181,26.1982225 17.6955766,26.1980768 17.6793306,26.1886171 C17.6630845,26.1791573 17.6530653,26.1617994 17.653,26.143 L17.653,23.45 C17.653,23.432 17.663,23.414 17.68,23.405 M18.835,22.787 L20.012,22.143 C20.0283113,22.134272 20.0479933,22.1346806 20.0639282,22.1440782 C20.0798632,22.1534758 20.089745,22.1705021 20.09,22.189 L20.09,24.241 C20.09,24.26 20.08,24.277 20.064,24.287 L18.887,24.931 C18.8706181,24.9402225 18.8505766,24.9400768 18.8343306,24.9306171 C18.8180845,24.9211573 18.8080653,24.9037994 18.808,24.885 L18.808,22.833 C18.808,22.814 18.818,22.797 18.835,22.787" id="Shape" fill="#8DC63F" fill-rule="nonzero"></path>
            <path d="M14.911,10.818 L15.642,10.403 C15.6581405,10.3931924 15.6783297,10.3929073 15.6947406,10.4022553 C15.7111516,10.4116033 15.7212037,10.4291145 15.721,10.448 L15.721,11.74 C15.721,11.76 15.711,11.777 15.694,11.786 L14.963,12.202 C14.9466181,12.2112225 14.9265766,12.2110768 14.9103306,12.2016171 C14.8940845,12.1921573 14.8840653,12.1747994 14.884,12.156 L14.884,10.864 C14.884,10.845 14.894,10.828 14.911,10.818 M17.004,10.148 L17.736,9.732 C17.7523113,9.72327199 17.7719933,9.72368065 17.7879282,9.7330782 C17.8038632,9.74247575 17.813745,9.75950209 17.814,9.778 L17.814,10.515 C17.814,10.535 17.804,10.552 17.788,10.561 L17.056,10.977 C17.0396887,10.985728 17.0200067,10.9853194 17.0040718,10.9759218 C16.9881368,10.9665242 16.978255,10.9494979 16.978,10.931 L16.978,10.194 C16.978,10.174 16.988,10.157 17.004,10.148 M18.15,9.467 L18.88,9.051 C18.8964434,9.04126454 18.9168545,9.04113468 18.9334204,9.05066012 C18.9499864,9.06018555 18.960142,9.07789122 18.96,9.097 L18.96,9.834 C18.96,9.854 18.949,9.871 18.933,9.88 L18.201,10.295 C18.1848439,10.3036551 18.1653627,10.3033486 18.1494868,10.2941895 C18.133611,10.2850303 18.1235942,10.2683188 18.123,10.25 L18.123,9.512 C18.123,9.494 18.133,9.476 18.149,9.467 M6.892,11.884 L6.361,11.583 C6.34922867,11.5762038 6.33472372,11.5762124 6.32296051,11.5830227 C6.3111973,11.589833 6.30396741,11.6024076 6.304,11.616 L6.304,12.151 C6.304,12.165 6.311,12.177 6.323,12.184 L6.853,12.486 C6.86482601,12.4933233 6.87970826,12.4935999 6.89179824,12.4867211 C6.90388822,12.4798424 6.91125364,12.4669076 6.911,12.453 L6.911,11.917 C6.91062347,11.9032415 6.90302269,11.8907002 6.891,11.884 M4.698,10.61 L4.167,10.308 C4.15522867,10.3012038 4.14072372,10.3012124 4.12896051,10.3080227 C4.1171973,10.314833 4.10996741,10.3274076 4.11,10.341 L4.11,10.876 C4.11,10.89 4.117,10.902 4.13,10.909 L4.66,11.211 C4.67192715,11.2178938 4.68665129,11.2177926 4.69848251,11.2107354 C4.71031373,11.2036782 4.71739887,11.1907704 4.717,11.177 L4.717,10.642 C4.71682982,10.6281816 4.70917124,10.615545 4.697,10.609 M19.275,8.856 L20.006,8.44 C20.0224434,8.43026454 20.0428545,8.43013468 20.0594204,8.43966012 C20.0759864,8.44918555 20.086142,8.46689122 20.086,8.486 L20.086,9.223 C20.086,9.242 20.075,9.259 20.058,9.269 L19.327,9.684 C19.3106181,9.6932225 19.2905766,9.69307679 19.2743306,9.68361706 C19.2580845,9.67415734 19.2480653,9.65679937 19.248,9.638 L19.248,8.901 C19.248,8.883 19.258,8.865 19.275,8.856 M17.216,12.433 L18.715,11.582 C18.7482006,11.5637555 18.7885331,11.5642403 18.8212855,11.5832777 C18.8540379,11.602315 18.8744211,11.6371212 18.875,11.675 L18.875,14.987 C18.8751682,15.0257522 18.8545609,15.0616241 18.821,15.081 L17.322,15.932 C17.2887994,15.9502445 17.2484669,15.9497597 17.2157145,15.9307223 C17.1829621,15.911685 17.1625789,15.8768788 17.162,15.839 L17.162,12.527 C17.162,12.488 17.182,12.453 17.216,12.433" id="Shape" fill="#8DC63F" fill-rule="nonzero"></path>
            <path d="M18.677,12.211 L21.387,10.688 C21.4203561,10.6696749 21.460895,10.670259 21.4937093,10.6895374 C21.5265236,10.7088158 21.5467688,10.7439424 21.547,10.782 L21.547,11.526 C21.5471682,11.5647522 21.5265609,11.6006241 21.493,11.62 L18.783,13.143 C18.7497309,13.1617406 18.7090386,13.1615205 18.6759741,13.1424212 C18.6429096,13.1233218 18.6223882,13.0881824 18.622,13.05 L18.622,12.305 C18.622,12.266 18.643,12.231 18.677,12.211 M17.708,21.951 L20.418,20.428 C20.4513561,20.4096749 20.491895,20.410259 20.5247093,20.4295374 C20.5575236,20.4488158 20.5777688,20.4839424 20.578,20.522 L20.578,21.266 C20.5781682,21.3047522 20.5575609,21.3406241 20.524,21.36 L17.814,22.883 C17.7805758,22.9018254 17.7396739,22.901508 17.7065459,22.8821661 C17.6734178,22.8628243 17.6530359,22.8273611 17.653,22.789 L17.653,22.045 C17.653,22.006 17.673,21.97 17.708,21.951 M19.414,22.48 L20.917,21.635 C20.93557,21.6242786 20.9584501,21.6242823 20.9770167,21.6350096 C20.9955833,21.645737 21.0070138,21.6655572 21.007,21.687 L21.007,22.1 C21.0070138,22.1214497 20.995576,22.1412752 20.977,22.152 L19.473,22.997 C19.45443,23.0077214 19.4315499,23.0077177 19.4129833,22.9969904 C19.3944167,22.986263 19.3829862,22.9664428 19.383,22.945 L19.383,22.532 C19.3829862,22.5105503 19.394424,22.4907248 19.413,22.48 M11.951,16.637 L11.209,16.215 C11.192322,16.2058375 11.1720525,16.2061295 11.1556454,16.2157687 C11.1392382,16.2254079 11.1291156,16.2429712 11.129,16.262 L11.129,17.572 C11.129,17.592 11.139,17.609 11.157,17.618 L11.898,18.04 C11.934,18.06 11.978,18.035 11.978,17.994 L11.978,16.684 C11.978,16.664 11.968,16.646 11.951,16.637 M11.951,7.697 L11.209,7.275 C11.1924016,7.26516437 11.1717695,7.26512561 11.1551343,7.27489881 C11.1384991,7.28467201 11.1284889,7.30271308 11.129,7.322 L11.129,8.632 C11.129,8.652 11.139,8.669 11.157,8.679 L11.898,9.101 C11.934,9.121 11.978,9.095 11.978,9.054 L11.978,7.744 C11.978,7.724 11.968,7.707 11.951,7.697 M6.619,13.835 L3.606,12.17 C3.57754886,12.1540446 3.5427762,12.1543477 3.51460749,12.1707966 C3.48643879,12.1872455 3.46908623,12.2173805 3.469,12.25 L3.469,14.507 C3.469,14.54 3.486,14.57 3.515,14.587 L6.528,16.252 C6.55651532,16.2684636 6.59165509,16.2684327 6.62014138,16.2519189 C6.64862766,16.2354051 6.66611667,16.2049266 6.666,16.172 L6.666,13.915 C6.66591213,13.8818073 6.6479512,13.8512355 6.619,13.835 M7.71,23.638 L4.697,21.972 C4.66854886,21.9560446 4.6337762,21.9563477 4.60560749,21.9727966 C4.57743879,21.9892455 4.56008623,22.0193805 4.56,22.052 L4.56,24.309 C4.56,24.342 4.578,24.373 4.607,24.389 L7.62,26.055 C7.64845114,26.0709554 7.6832238,26.0706523 7.71139251,26.0542034 C7.73956121,26.0377545 7.75691377,26.0076195 7.757,25.975 L7.757,23.718 C7.75711664,23.6850153 7.73956591,23.6544923 7.711,23.638 M10.614,25.204 L9.015,24.32 C8.99985443,24.3119485 8.98160131,24.3124027 8.96687496,24.3211976 C8.95214862,24.3299925 8.9430932,24.3458475 8.943,24.363 L8.943,26.335 C8.943,26.353 8.952,26.369 8.967,26.377 L10.565,27.261 C10.5802164,27.2695489 10.5988316,27.2693586 10.6138701,27.2605003 C10.6289085,27.2516421 10.6380999,27.2354532 10.638,27.218 L10.638,25.246 C10.6379498,25.2287517 10.6288346,25.2128001 10.614,25.204 M6.935,20.351 L5.428,19.519 C5.41374234,19.5107682 5.39617245,19.5107837 5.38192931,19.5190406 C5.36768617,19.5272975 5.35894166,19.5425367 5.359,19.559 L5.359,20.687 C5.359,20.704 5.369,20.719 5.383,20.727 L6.889,21.56 C6.90325766,21.5682318 6.92082755,21.5682163 6.93507069,21.5599594 C6.94931383,21.5517025 6.95805834,21.5364633 6.958,21.52 L6.958,20.39 C6.95827254,20.3734516 6.94943916,20.3580892 6.935,20.35" id="Shape" fill="#8DC63F" fill-rule="nonzero"></path>
            <path d="M5.865,19.195 L5.428,18.961 C5.41374234,18.9527682 5.39617245,18.9527837 5.38192931,18.9610406 C5.36768617,18.9692975 5.35894166,18.9845367 5.359,19.001 L5.359,20.129 C5.359,20.146 5.369,20.161 5.383,20.169 L5.82,20.403 C5.83425766,20.4112318 5.85182755,20.4112163 5.86607069,20.4029594 C5.88031383,20.3947025 5.88905834,20.3794633 5.889,20.363 L5.889,19.235 C5.88885514,19.2182983 5.87966861,19.2029874 5.865,19.195 Z M8.754,11.943 L8.316,11.709 C8.30174234,11.7007682 8.28417245,11.7007837 8.26992931,11.7090406 C8.25568617,11.7172975 8.24694166,11.7325367 8.247,11.749 L8.247,12.878 C8.247,12.895 8.257,12.91 8.271,12.918 L8.708,13.152 C8.72225766,13.1602318 8.73982755,13.1602163 8.75407069,13.1519594 C8.76831383,13.1437025 8.77705834,13.1284633 8.777,13.112 L8.777,11.983 C8.77705832,11.9665076 8.76828295,11.9512461 8.754,11.943 Z M9.862,11.276 L9.425,11.043 C9.41074234,11.0347682 9.39317245,11.0347837 9.37892931,11.0430406 C9.36468617,11.0512975 9.35594166,11.0665367 9.356,11.083 L9.356,12.211 C9.356,12.228 9.366,12.243 9.379,12.251 L9.817,12.485 C9.83125766,12.4932318 9.84882755,12.4932163 9.86307069,12.4849594 C9.87731383,12.4767025 9.88605834,12.4614633 9.886,12.445 L9.886,11.316 C9.88585514,11.2992983 9.87666861,11.2839874 9.862,11.276 Z M10.612,6.162 C10.4272937,6.16200001 10.256618,6.06346037 10.1642648,5.90350001 C10.0719117,5.74353965 10.0719117,5.54646035 10.1642648,5.38649999 C10.256618,5.22653963 10.4272937,5.12799999 10.612,5.128 C10.8975312,5.12800001 11.129,5.35946879 11.129,5.645 C11.129,5.93053121 10.8975312,6.16199999 10.612,6.162 Z M9.511,6.499 C9.511,6.78453122 9.27953122,7.016 8.994,7.016 C8.70846878,7.016 8.477,6.78453122 8.477,6.499 C8.477,6.21346878 8.70846878,5.982 8.994,5.982 C9.27953122,5.982 9.511,6.21346878 9.511,6.499 Z M11.13,11.71 C11.13,11.9960835 10.8980835,12.228 10.612,12.228 C10.3259165,12.228 10.094,11.9960835 10.094,11.71 C10.094,11.4241926 10.3256926,11.1925 10.6115,11.1925 C10.8973074,11.1925 11.129,11.4241926 11.129,11.71 L11.13,11.71 Z M6.666,20.355 C6.65124061,20.3552684 6.63699286,20.3495925 6.62646106,20.3392487 C6.61592926,20.328905 6.60999756,20.3147618 6.61,20.3 C6.61,19.58 7.062,18.927 7.735,18.674 C7.75357781,18.6668547 7.77455639,18.6701633 7.79003332,18.6826795 C7.80551025,18.6951957 7.8131342,18.715018 7.81003332,18.7346795 C7.80693244,18.754341 7.79357781,18.7708547 7.775,18.778 C7.14203475,19.0178458 6.72247786,19.6231212 6.72,20.3 C6.72,20.33 6.695,20.355 6.665,20.355 L6.666,20.355 Z M4.86,17.07 C5.01987635,17.1625318 5.11824307,17.3333277 5.11804637,17.5180506 C5.11784967,17.7027735 5.01911942,17.8733595 4.85904637,17.9655506 C4.69897331,18.0577417 4.50187635,18.0575318 4.342,17.965 C4.09457644,17.8219582 4.00995826,17.5054236 4.15300001,17.258 C4.29604176,17.0105764 4.61257643,16.9259583 4.86,17.069 L4.86,17.07 Z" id="Shape" fill="#8DC63F" fill-rule="nonzero"></path>
            <path d="M7.298,18.961 L7.2,19.131 L4.751,17.716 L4.849,17.547 L7.299,18.961 M11.983,9.56 L11.885,9.73 L10.563,8.966 L10.661,8.797 L11.983,9.561 M10.66,7.314 L10.562,7.483 L9.239,6.719 L9.337,6.55 L10.66,7.314 M15.351,19.277 C15.351,19.091 15.383,18.913 15.439,18.746 L14.811,19.103 C14.7758021,19.1230828 14.754053,19.1604758 14.754,19.201 L14.754,21.968 C14.754,22.055 14.847,22.109 14.922,22.067 L16.489,21.177 C16.5245098,21.1567408 16.5463076,21.1188814 16.546,21.078 L16.546,20.879 C15.8374224,20.6677432 15.3515573,20.0163994 15.351,19.277 M11.983,21.173 L11.885,21.342 L10.563,20.578 L10.661,20.409 L11.983,21.173 M13.35,14.971 L13.447,15.141 L14.769,14.377 L14.671,14.207 L13.349,14.971" id="Shape" fill="#8DC63F" fill-rule="nonzero"></path>
            <path d="M12.67,39.917 C12.5965349,39.9167353 12.5261839,39.8872972 12.4744238,39.835162 C12.4226636,39.7830268 12.3937343,39.7124651 12.394,39.639 L12.394,4.507 C12.394,4.35401712 12.5180171,4.23 12.671,4.23 C12.8239829,4.23 12.948,4.35401712 12.948,4.507 L12.948,39.639 C12.9482658,39.7126381 12.9191994,39.7833513 12.867223,39.8355153 C12.8152466,39.8876794 12.7446386,39.9170005 12.671,39.917 M15.65,39.615 C15.4970171,39.615 15.373,39.4909829 15.373,39.338 L15.373,28.32 C15.373,28.1670171 15.4970171,28.043 15.65,28.043 C15.8029829,28.043 15.927,28.1670171 15.927,28.32 L15.927,39.337 C15.927,39.4899829 15.8029829,39.614 15.65,39.614 M9.79,39.615 C9.63701712,39.615 9.513,39.4909829 9.513,39.338 L9.513,27.765 C9.513,27.611741 9.63724098,27.4875 9.7905,27.4875 C9.94375902,27.4875 10.068,27.611741 10.068,27.765 L10.068,39.338 C10.0680005,39.4116386 10.0386794,39.4822466 9.98651534,39.534223 C9.93435129,39.5861994 9.86363808,39.6152658 9.79,39.615" id="Shape" fill="#1B1A19" fill-rule="nonzero"></path>
            <path d="M12.67,0.731 C11.706,0.731 10.922,1.516 10.922,2.481 C10.922,3.445 11.706,4.229 12.671,4.229 C13.6367174,4.22844832 14.4194483,3.44571742 14.42,2.48 C14.4194479,1.51389224 13.6361079,0.730999842 12.67,0.731 Z M12.67,4.784 C11.3983835,4.78234616 10.3681018,3.75161707 10.367,2.48 C10.3686538,1.20838353 11.3993829,0.178101802 12.671,0.177 C13.9422266,0.178652734 14.9723473,1.20877344 14.974,2.48 C14.9728982,3.75161707 13.9426165,4.78234616 12.671,4.784 L12.67,4.784 Z M22.01,5.765 C22.022468,6.19169803 21.8019483,6.59142903 21.4343551,6.80845863 C21.0667618,7.02548823 20.6102382,7.02548823 20.2426449,6.80845863 C19.8750517,6.59142903 19.654532,6.19169803 19.667,5.765 C19.667,5.11772227 20.1917223,4.593 20.839,4.593 C21.4862777,4.593 22.011,5.11772227 22.011,5.765 L22.01,5.765 Z M16.515,17.721 C16.4413619,17.7212658 16.3706487,17.6921994 16.3184847,17.640223 C16.2663206,17.5882466 16.2369995,17.5176386 16.237,17.444 L16.237,9.356 C16.237,9.20274098 16.361241,9.0785 16.5145,9.0785 C16.667759,9.0785 16.792,9.20274098 16.792,9.356 L16.792,17.444 C16.792,17.517465 16.7628162,17.587921 16.7108686,17.6398686 C16.658921,17.6918162 16.588465,17.721 16.515,17.721 Z" id="Shape" fill="#1B1A19" fill-rule="nonzero"></path>
            <path d="M16.515,5.581 C15.5485017,5.581 14.765,6.36450169 14.765,7.331 C14.7661037,8.29671717 15.5492822,9.07900063 16.515,9.079 C17.4803269,9.07789693 18.262449,8.29532735 18.263,7.33 C18.262449,6.36467265 17.4803269,5.58210307 16.515,5.581 Z M16.515,9.634 C15.2426025,9.6334487 14.2111034,8.60239716 14.21,7.33 C14.2116538,6.05838353 15.2423829,5.0281018 16.514,5.027 C17.7852266,5.02865273 18.8153473,6.05877344 18.817,7.33 C18.8158982,8.60161707 17.7856165,9.63234616 16.514,9.634 L16.515,9.634 Z M7.386,7.527 C6.421,7.527 5.636,8.312 5.636,9.277 C5.636,10.24 6.421,11.025 7.386,11.025 C8.35,11.025 9.135,10.24 9.135,9.276 C9.135,8.312 8.35,7.526 7.385,7.526 L7.386,7.527 Z M7.386,11.579 C6.11438293,11.5778982 5.08365384,10.5476165 5.082,9.276 C5.08365384,8.00438353 6.11438293,6.9741018 7.386,6.973 C8.65722656,6.97465273 9.68734727,8.00477344 9.689,9.276 C9.68734727,10.5472266 8.65722656,11.5773473 7.386,11.579 Z M23.777,16.159 C22.8112826,16.1595517 22.0285517,16.9422826 22.028,17.908 C22.0285521,18.8741078 22.8118921,19.6570002 23.778,19.657 C24.742,19.657 25.526,18.872 25.526,17.907 C25.526,16.943 24.742,16.159 23.777,16.159 Z M23.777,20.211 C22.5057734,20.2093473 21.4756527,19.1792266 21.474,17.908 C21.4751018,16.6363829 22.5053835,15.6056538 23.777,15.604 C25.049007,15.6051027 26.0798973,16.635993 26.081,17.908 C26.0793462,19.1796165 25.0486171,20.2098982 23.777,20.211 Z M24.788,9.322 C23.824,9.322 23.038,10.106 23.038,11.071 C23.038,12.035 23.824,12.82 24.788,12.82 C25.753,12.82 26.538,12.035 26.538,11.07 C26.538,10.106 25.753,9.322 24.788,9.322 Z M24.788,13.374 C23.5167734,13.3723473 22.4866527,12.3422266 22.485,11.071 C22.4861018,9.79938293 23.5163835,8.76865384 24.788,8.767 C26.060007,8.76810274 27.0908973,9.79899299 27.092,11.071 C27.0903462,12.3426165 26.0596171,13.3728982 24.788,13.374 Z" id="Shape" fill="#1B1A19" fill-rule="nonzero"></path>
            <path d="M12.67,19.664 C12.6215373,19.6640878 12.5739184,19.6513204 12.532,19.627 L7.247,16.575 C7.16145398,16.525372 7.10885713,16.4338992 7.109,16.335 L7.109,11.302 C7.109,11.1490171 7.23301712,11.025 7.386,11.025 C7.53898288,11.025 7.663,11.1490171 7.663,11.302 L7.663,16.175 L12.809,19.147 C12.9160094,19.2105486 12.9677436,19.3374764 12.9356468,19.4577229 C12.90355,19.5779695 12.795444,19.662232 12.671,19.664 M14.255,39.917 C14.1813614,39.9170005 14.1107534,39.8876794 14.058777,39.8355153 C14.0068006,39.7833513 13.9777342,39.7126381 13.978,39.639 L13.978,23.156 C13.978,23.056 14.031,22.965 14.118,22.916 L21.613,18.636 C21.699101,18.586876 21.804869,18.5874178 21.8904621,18.6374215 C21.9760553,18.6874251 22.02847,18.7792938 22.0279621,18.8784215 C22.0274543,18.9775492 21.974101,19.068876 21.888,19.118 L14.532,23.318 L14.532,39.639 C14.5322658,39.7126381 14.5031994,39.7833513 14.451223,39.8355153 C14.3992466,39.8876794 14.3286386,39.9170005 14.255,39.917" id="Shape" fill="#1B1A19" fill-rule="nonzero"></path>
            <path d="M14.255,29.288 C14.1020171,29.288 13.978,29.1639829 13.978,29.011 L13.978,18.784 C13.978,18.684 14.031,18.594 14.116,18.544 L19.263,15.573 L19.263,13.99 C19.263,13.888 19.318,13.795 19.407,13.746 L22.857,11.866 C22.9917575,11.7928223 23.1603223,11.8427425 23.2335,11.9775 C23.3066777,12.1122575 23.2567575,12.2808223 23.122,12.354 L19.817,14.154 L19.817,15.732 C19.817,15.831 19.764,15.922 19.678,15.972 L14.532,18.943 L14.532,29.01 C14.532,29.1629829 14.4079829,29.287 14.255,29.287 M16.515,12.325 C16.3885661,12.326589 16.2771038,12.242358 16.2441134,12.1202937 C16.2111231,11.9982294 16.2649793,11.8693177 16.375,11.807 L20.562,9.391 L20.562,6.937 C20.562,6.83803742 20.6147959,6.74659223 20.7005,6.69711094 C20.7862041,6.64762964 20.8917959,6.64762964 20.9775,6.69711094 C21.0632041,6.74659223 21.116,6.83803742 21.116,6.937 L21.116,9.551 C21.116,9.65 21.063,9.741 20.977,9.791 L16.653,12.287 C16.6111053,12.3114947 16.5635283,12.3245957 16.515,12.325 M7.175,20.41 C7.16253203,20.836698 7.38305167,21.236429 7.75064494,21.4534586 C8.11823821,21.6704882 8.57476179,21.6704882 8.94235506,21.4534586 C9.30994833,21.236429 9.53046797,20.836698 9.518,20.41 C9.49948416,19.7763225 8.98044794,19.2722308 8.3465,19.2722308 C7.71255206,19.2722308 7.19351584,19.7763225 7.175,20.41 M9.095,14.172 C9.095,14.8192777 9.61972227,15.344 10.267,15.344 C10.9142777,15.344 11.439,14.8192777 11.439,14.172 C11.439,13.5247223 10.9142777,13 10.267,13 C9.61972227,13 9.095,13.5247223 9.095,14.172" id="Shape" fill="#1B1A19" fill-rule="nonzero"></path>
            <path d="M12.67,29.502 C12.6215373,29.5020878 12.5739184,29.4893204 12.532,29.465 L8.208,26.968 C8.12245398,26.918372 8.06985713,26.8268992 8.07,26.728 L8.07,21.581 C8.07,21.4280171 8.19401712,21.304 8.347,21.304 C8.49998288,21.304 8.624,21.4280171 8.624,21.581 L8.624,26.568 L12.809,28.984 C12.9170253,29.0471399 12.9695577,29.1746677 12.9373469,29.295575 C12.9051361,29.4164823 12.7961202,29.5009722 12.671,29.502 M2.365,7.343 C2.365,7.99027773 2.88972227,8.515 3.537,8.515 C4.18427773,8.515 4.709,7.99027773 4.709,7.343 C4.709,6.69572227 4.18427773,6.171 3.537,6.171 C2.88972227,6.171 2.365,6.69572227 2.365,7.343" id="Shape" fill="#1B1A19" fill-rule="nonzero"></path>
            <path d="M7.378,13.65 C7.32989525,13.649772 7.28267913,13.6370202 7.241,13.613 L3.399,11.406 C3.31321968,11.3564752 3.26026924,11.26505 3.26,11.166 L3.26,8.516 C3.26,8.36274098 3.38424098,8.2385 3.5375,8.2385 C3.69075902,8.2385 3.815,8.36274098 3.815,8.516 L3.815,11.005 L7.517,13.132 C7.62577357,13.1946833 7.67879004,13.3226837 7.64619441,13.4439207 C7.61359877,13.5651577 7.50354198,13.6493145 7.378,13.649 M18.196,19.387 C18.196,19.8057153 17.9726181,20.1926242 17.61,20.4019818 C17.2473819,20.6113395 16.8006181,20.6113395 16.438,20.4019818 C16.0753819,20.1926242 15.852,19.8057153 15.852,19.387 C15.852,18.7397223 16.3767223,18.215 17.024,18.215 C17.6712777,18.215 18.196,18.7397223 18.196,19.387" id="Shape" fill="#1B1A19" fill-rule="nonzero"></path>
            <path d="M19.488,17.978 L18.757,18.393 C18.7402225,18.4021982 18.7298517,18.419867 18.73,18.439 L18.73,18.458 C18.9366216,18.8380582 19.0098574,19.2764168 18.938,19.703 L19.54,19.361 C19.5566221,19.3516426 19.5669336,19.3340748 19.567,19.315 L19.567,18.023 C19.5665864,18.0043796 19.5564293,17.9873429 19.5402456,17.9781243 C19.524062,17.9689058 19.5042273,17.9688586 19.488,17.978" id="Shape" fill="#8DC63F" fill-rule="nonzero"></path>
            <path d="M23.738,24.255 C23.738,24.9022777 23.2132777,25.427 22.566,25.427 C21.9187223,25.427 21.394,24.9022777 21.394,24.255 C21.394,23.6077223 21.9187223,23.083 22.566,23.083 C23.2132777,23.083 23.738,23.6077223 23.738,24.255 M14.276,27.544 C14.150458,27.5443145 14.0404012,27.4601577 14.0078056,27.3389207 C13.97521,27.2176837 14.0282264,27.0896833 14.137,27.027 L16.747,25.521 L16.747,19.689 C16.747,19.5900374 16.7997959,19.4985922 16.8855,19.4491109 C16.9712041,19.3996297 17.0767959,19.3996297 17.1625,19.4491109 C17.2482041,19.4985922 17.301,19.5900374 17.301,19.689 L17.301,25.681 C17.301,25.78 17.248,25.871 17.162,25.921 L14.415,27.507 C14.3727699,27.531447 14.3247954,27.5442171 14.276,27.544 M10.267,18.185 C10.1140171,18.185 9.99,18.0609829 9.99,17.908 L9.99,14.728 C9.99,14.5750171 10.1140171,14.451 10.267,14.451 C10.4199829,14.451 10.544,14.5750171 10.544,14.728 L10.544,17.908 C10.544,18.0609829 10.4199829,18.185 10.267,18.185 M12.622,21.033 C12.5732046,21.0332171 12.5252301,21.020447 12.483,20.996 L1.583,14.702 C1.49725625,14.6525187 1.44442371,14.5610524 1.44440389,14.4620555 C1.44438407,14.3630586 1.49717997,14.2715711 1.5829039,14.2220555 C1.66862782,14.1725399 1.77425626,14.1725187 1.86,14.222 L12.76,20.516 C12.8686118,20.5785908 12.9216513,20.7063216 12.8893226,20.8274372 C12.8569938,20.9485527 12.7473559,21.0328609 12.622,21.033" id="Shape" fill="#1B1A19" fill-rule="nonzero"></path>
            <path d="M14.332,29.213 C14.2049515,29.2154796 14.0926288,29.1308933 14.0599164,29.0081033 C14.027204,28.8853134 14.082557,28.7560567 14.194,28.695 L22.301,24.067 C22.387101,24.017876 22.492869,24.0184179 22.5784621,24.0684215 C22.6640553,24.1184252 22.71647,24.2102938 22.7159621,24.3094215 C22.7154543,24.4085492 22.662101,24.499876 22.576,24.549 L14.469,29.177 C14.4272604,29.2007572 14.3800268,29.213169 14.332,29.213 Z M2.365,18.185 C1.401,18.185 0.616,18.969 0.616,19.934 C0.616,20.898 1.401,21.683 2.366,21.683 C3.33,21.683 4.115,20.898 4.115,19.933 C4.115,18.969 3.33,18.185 2.365,18.185 Z M2.365,22.238 C1.09338353,22.2363462 0.0631018018,21.2056171 0.062,19.934 C0.0631018018,18.6623829 1.09338353,17.6316538 2.365,17.63 C3.63700701,17.6311027 4.66789726,18.661993 4.669,19.934 C4.66789726,21.206007 3.63700701,22.2368973 2.365,22.238 Z" id="Shape" fill="#1B1A19" fill-rule="nonzero"></path>
            <path d="M11.22,39.917 C11.1463614,39.9170005 11.0757534,39.8876794 11.023777,39.8355153 C10.9718006,39.7833513 10.9427342,39.7126381 10.943,39.639 L10.943,24.982 L4.253,21.144 C4.12045166,21.0675086 4.07500856,20.8980483 4.1515,20.7655 C4.22799144,20.6329517 4.39745166,20.5875086 4.53,20.664 L11.358,24.581 C11.444,24.631 11.498,24.722 11.498,24.821 L11.498,39.64 C11.498267,39.7138117 11.4690635,39.7846773 11.4168704,39.8368704 C11.3646773,39.8890635 11.2938117,39.918267 11.22,39.918" id="Shape" fill="#1B1A19" fill-rule="nonzero"></path>
            <path d="M8.66,14.172 C8.66,13.952 8.705,13.742 8.785,13.552 L8.045,13.131 C8.00983103,13.1104501 7.96632398,13.1104182 7.93112491,13.1309165 C7.89592584,13.1514148 7.87448279,13.1892706 7.875,13.23 L7.875,16.014 C7.875,16.054 7.897,16.092 7.933,16.112 L9.509,17.008 C9.54416897,17.0285499 9.58767602,17.0285818 9.62287509,17.0080835 C9.65807416,16.9875852 9.67951721,16.9497294 9.679,16.909 L9.679,15.666 C9.06458209,15.4247344 8.66036184,14.8320896 8.66,14.172 M21.094,20.306 C21.094,20.5918074 21.3256926,20.8235 21.6115,20.8235 C21.8973074,20.8235 22.129,20.5918074 22.129,20.306 C22.129,20.0201926 21.8973074,19.7885 21.6115,19.7885 C21.3256926,19.7885 21.094,20.0201926 21.094,20.306" id="Shape" fill="#8DC63F" fill-rule="nonzero"></path>
            <path d="M19.946,21.12 L20.044,21.29 L21.366,20.526 L21.268,20.357 L19.946,21.121 M22.528,8.204 C22.528,8.48980736 22.2963074,8.7215 22.0105,8.7215 C21.7246926,8.7215 21.493,8.48980736 21.493,8.204 C21.493,7.91819264 21.7246926,7.6865 22.0105,7.6865 C22.2963074,7.6865 22.528,7.91819264 22.528,8.204" id="Shape" fill="#8DC63F" fill-rule="nonzero"></path>
        </g>
    </g>
</svg>