<?xml version="1.0" encoding="utf-8"?>
<!-- Generator: Adobe Illustrator 22.0.0, SVG Export Plug-In . SVG Version: 6.00 Build 0)  -->
<svg version="1.1" id="Layer_1" xmlns="http://www.w3.org/2000/svg" xmlns:xlink="http://www.w3.org/1999/xlink" x="0px" y="0px"
	 viewBox="0 0 110.3 40.3" style="enable-background:new 0 0 110.3 40.3;" xml:space="preserve">
<style type="text/css">
	.st0{fill:#FFFFFF;}
</style>
<title>bonsai-logo</title>
<desc>Created with Sketch.</desc>
<path class="st0" d="M1.9,12.2c-1,0-1.7,0.8-1.7,1.7c0,1,0.8,1.7,1.8,1.7c1,0,1.7-0.8,1.7-1.8C3.7,12.9,2.9,12.2,1.9,12.2z"/>
<path class="st0" d="M7.6,25.2c0,0.6-0.5,1.2-1.2,1.2s-1.2-0.5-1.2-1.2c0-0.6,0.5-1.2,1.2-1.2S7.6,24.6,7.6,25.2"/>
<path class="st0" d="M13.9,29.7L5.8,25c-0.1,0-0.1-0.1-0.1-0.2c0-0.1,0.1-0.2,0.1-0.2c0.1,0,0.2-0.1,0.3,0l8.1,4.6"/>
<g id="Page-1">
	<g id="bonsai-logo">
		<path id="Bons" class="st0" d="M48.8,30c0,2.5-2,4.5-4.5,4.5h-8.1V17.2h7.9c2.4,0,4,2.2,4,4.4c0,1.8-1,3.3-2.5,4
			C47.5,26.2,48.8,28,48.8,30z M47.9,29.9c0-2-1.5-3.8-3.5-3.8h-7.4v7.6h7.2C46.3,33.7,47.9,31.8,47.9,29.9z M43.9,17.9h-6.9v7.4
			h6.7c2,0,3.4-1.9,3.4-3.7C47.2,19.7,45.8,17.9,43.9,17.9z M57.2,34.7c-3.4,0-6.1-3-6.1-6.5c0-3.6,2.7-6.6,6.1-6.6
			c3.4,0,6.1,3,6.1,6.6C63.3,31.7,60.6,34.7,57.2,34.7z M51.9,28.2c0,3.2,2.4,5.7,5.3,5.7c2.9,0,5.3-2.6,5.3-5.8s-2.4-5.8-5.3-5.8
			C54.3,22.4,51.9,25,51.9,28.2z M76.4,27.3v7.2h-0.8v-7.1c0-3.5-0.9-5-3.1-5c-2.3,0-4.7,1.8-5.3,4.2v7.9h-0.8V21.8h0.8V25
			c1.1-2,3.3-3.4,5.5-3.4C75.3,21.6,76.4,23.5,76.4,27.3z M84.1,34.7c-2,0-3.7-0.7-5-2l0.5-0.6c1.3,1.2,2.7,1.9,4.5,1.9
			c2.4,0,4-1.1,4-2.9c0-1.7-1.5-2.1-4.2-2.8c-2.8-0.7-4.1-1.1-4.1-3.1c0-2.5,2.1-3.7,4.5-3.7c2,0,3.6,0.8,4.3,1.8L88,23.8
			c-0.7-1-2.2-1.5-3.8-1.5c-2,0-3.7,0.9-3.7,2.8c0,1.6,1,1.9,3.5,2.5c3.1,0.7,4.9,1.2,4.9,3.4C88.9,33.3,87,34.7,84.1,34.7z"/>
		<path id="AI" class="st0" d="M91.7,34.5h-0.9l7.5-17.3H99l7.5,17.3h-0.9l-2.6-6h-8.7L91.7,34.5z M102.7,27.8l-4.1-9.5l-4.1,9.5
			H102.7z M110.1,34.5h-0.8V17.2h0.8V34.5z"/>
		<path id="Shape" class="st0" d="M27.3,11.3c0,0.6-0.5,1.2-1.2,1.2s-1.2-0.5-1.2-1.2s0.5-1.2,1.2-1.2S27.3,10.7,27.3,11.3
			 M24.5,40.2h-21c-0.2,0-0.3-0.1-0.3-0.3s0.1-0.3,0.3-0.3h21c0.2,0,0.3,0.1,0.3,0.3S24.7,40.2,24.5,40.2 M26.3,18.2
			c0,0.6-0.5,1.2-1.2,1.2s-1.2-0.5-1.2-1.2c0-0.6,0.5-1.2,1.2-1.2S26.3,17.5,26.3,18.2 M4.9,20.2c0,0.6-0.5,1.2-1.2,1.2
			s-1.2-0.5-1.2-1.2S3.1,19,3.7,19S4.9,19.5,4.9,20.2 M9.9,9.5c0,0.4-0.2,0.8-0.6,1c-0.4,0.2-0.8,0.2-1.2,0c-0.4-0.2-0.6-0.6-0.6-1
			c0-0.6,0.5-1.2,1.2-1.2S9.9,8.9,9.9,9.5 M19,7.6c0,0.6-0.5,1.2-1.2,1.2s-1.2-0.5-1.2-1.2s0.5-1.2,1.2-1.2S19,6.9,19,7.6 M15.2,2.7
			c0,0.6-0.5,1.2-1.2,1.2c-0.6,0-1.2-0.5-1.2-1.2s0.5-1.2,1.2-1.2C14.7,1.6,15.2,2.1,15.2,2.7 M21.8,16.1 M21.8,16.1"/>
		<path id="Shape_1_" class="st0" d="M19.2,26.4"/>
		<path id="Shape_6_" class="st0" d="M14,40.2c-0.1,0-0.1,0-0.2-0.1c-0.1-0.1-0.1-0.1-0.1-0.2V4.8c0-0.2,0.1-0.3,0.3-0.3
			c0.2,0,0.3,0.1,0.3,0.3v35.1c0,0.1,0,0.1-0.1,0.2C14.1,40.1,14.1,40.2,14,40.2 M17,39.9c-0.2,0-0.3-0.1-0.3-0.3v-11
			c0-0.2,0.1-0.3,0.3-0.3s0.3,0.1,0.3,0.3v11C17.3,39.7,17.1,39.9,17,39.9 M11.1,39.9c-0.2,0-0.3-0.1-0.3-0.3V28
			c0-0.2,0.1-0.3,0.3-0.3c0.2,0,0.3,0.1,0.3,0.3v11.6c0,0.1,0,0.1-0.1,0.2C11.3,39.8,11.2,39.9,11.1,39.9"/>
		<path id="Shape_7_" class="st0" d="M14,1c-1,0-1.7,0.8-1.7,1.8c0,1,0.8,1.7,1.7,1.7c1,0,1.7-0.8,1.7-1.7C15.8,1.8,15,1,14,1z
			 M14,5c-1.3,0-2.3-1-2.3-2.3c0-1.3,1-2.3,2.3-2.3c1.3,0,2.3,1,2.3,2.3C16.3,4,15.3,5,14,5L14,5z M23.3,6c0,0.4-0.2,0.8-0.6,1
			s-0.8,0.2-1.2,0S21,6.4,21,6c0-0.6,0.5-1.2,1.2-1.2S23.3,5.4,23.3,6L23.3,6z M17.8,18c-0.1,0-0.1,0-0.2-0.1
			c-0.1-0.1-0.1-0.1-0.1-0.2V9.6c0-0.2,0.1-0.3,0.3-0.3s0.3,0.1,0.3,0.3v8.1c0,0.1,0,0.1-0.1,0.2C18,17.9,17.9,18,17.8,18z"/>
		<path id="Shape_8_" class="st0" d="M17.8,5.8c-1,0-1.8,0.8-1.8,1.8c0,1,0.8,1.7,1.8,1.7c1,0,1.7-0.8,1.7-1.7
			C19.6,6.6,18.8,5.8,17.8,5.8z M17.8,9.9c-1.3,0-2.3-1-2.3-2.3c0-1.3,1-2.3,2.3-2.3c1.3,0,2.3,1,2.3,2.3
			C20.1,8.9,19.1,9.9,17.8,9.9L17.8,9.9z M8.7,7.8C7.8,7.8,7,8.6,7,9.5c0,1,0.8,1.7,1.8,1.7c1,0,1.7-0.8,1.7-1.7S9.7,7.8,8.7,7.8
			L8.7,7.8z M8.7,11.8c-1.3,0-2.3-1-2.3-2.3c0-1.3,1-2.3,2.3-2.3c1.3,0,2.3,1,2.3,2.3C11,10.8,10,11.8,8.7,11.8z M25.1,16.4
			c-1,0-1.7,0.8-1.7,1.7c0,1,0.8,1.7,1.8,1.7c1,0,1.7-0.8,1.7-1.8C26.9,17.2,26.1,16.4,25.1,16.4z M25.1,20.5c-1.3,0-2.3-1-2.3-2.3
			c0-1.3,1-2.3,2.3-2.3c1.3,0,2.3,1,2.3,2.3C27.4,19.4,26.4,20.5,25.1,20.5z M26.1,9.6c-1,0-1.8,0.8-1.8,1.7c0,1,0.8,1.7,1.8,1.7
			c1,0,1.8-0.8,1.8-1.8C27.9,10.4,27.1,9.6,26.1,9.6z M26.1,13.6c-1.3,0-2.3-1-2.3-2.3c0-1.3,1-2.3,2.3-2.3c1.3,0,2.3,1,2.3,2.3
			C28.4,12.6,27.4,13.6,26.1,13.6z"/>
		<path id="Shape_9_" class="st0" d="M14,19.9c0,0-0.1,0-0.1,0l-5.3-3.1c-0.1,0-0.1-0.1-0.1-0.2v-5c0-0.2,0.1-0.3,0.3-0.3
			c0.2,0,0.3,0.1,0.3,0.3v4.9l5.1,3c0.1,0.1,0.2,0.2,0.1,0.3C14.2,19.8,14.1,19.9,14,19.9 M15.6,40.2c-0.1,0-0.1,0-0.2-0.1
			c-0.1-0.1-0.1-0.1-0.1-0.2V23.4c0-0.1,0.1-0.2,0.1-0.2l7.5-4.3c0.1,0,0.2,0,0.3,0c0.1,0.1,0.1,0.1,0.1,0.2c0,0.1-0.1,0.2-0.1,0.2
			l-7.4,4.2v16.3c0,0.1,0,0.1-0.1,0.2C15.7,40.1,15.7,40.2,15.6,40.2"/>
		<path id="Shape_10_" class="st0" d="M15.6,29.5c-0.2,0-0.3-0.1-0.3-0.3V19c0-0.1,0.1-0.2,0.1-0.2l5.1-3v-1.6
			c0-0.1,0.1-0.2,0.1-0.2l3.5-1.9c0.1-0.1,0.3,0,0.4,0.1c0.1,0.1,0,0.3-0.1,0.4l-3.3,1.8V16c0,0.1-0.1,0.2-0.1,0.2l-5.1,3v10.1
			C15.9,29.4,15.7,29.5,15.6,29.5 M17.8,12.6c-0.1,0-0.2-0.1-0.3-0.2c0-0.1,0-0.3,0.1-0.3l4.2-2.4V7.2c0-0.1,0.1-0.2,0.1-0.2
			c0.1,0,0.2,0,0.3,0c0.1,0,0.1,0.1,0.1,0.2v2.6c0,0.1-0.1,0.2-0.1,0.2L18,12.5C17.9,12.6,17.9,12.6,17.8,12.6 M8.5,20.7
			c0,0.4,0.2,0.8,0.6,1c0.4,0.2,0.8,0.2,1.2,0c0.4-0.2,0.6-0.6,0.6-1c0-0.6-0.5-1.1-1.2-1.1C9,19.5,8.5,20,8.5,20.7 M10.4,14.4
			c0,0.6,0.5,1.2,1.2,1.2s1.2-0.5,1.2-1.2s-0.5-1.2-1.2-1.2S10.4,13.8,10.4,14.4"/>
		<path id="Shape_11_" class="st0" d="M14,29.8c0,0-0.1,0-0.1,0l-4.3-2.5c-0.1,0-0.1-0.1-0.1-0.2v-5.1c0-0.2,0.1-0.3,0.3-0.3
			s0.3,0.1,0.3,0.3v5l4.2,2.4c0.1,0.1,0.2,0.2,0.1,0.3C14.2,29.7,14.1,29.8,14,29.8 M3.7,7.6c0,0.6,0.5,1.2,1.2,1.2S6,8.2,6,7.6
			S5.5,6.4,4.9,6.4S3.7,6.9,3.7,7.6"/>
		<path id="Shape_12_" class="st0" d="M8.7,13.9c0,0-0.1,0-0.1,0l-3.8-2.2c-0.1,0-0.1-0.1-0.1-0.2V8.8c0-0.2,0.1-0.3,0.3-0.3
			c0.2,0,0.3,0.1,0.3,0.3v2.5l3.7,2.1C9,13.4,9,13.6,9,13.7C8.9,13.8,8.8,13.9,8.7,13.9 M19.5,19.6c0,0.4-0.2,0.8-0.6,1
			c-0.4,0.2-0.8,0.2-1.2,0c-0.4-0.2-0.6-0.6-0.6-1c0-0.6,0.5-1.2,1.2-1.2S19.5,19,19.5,19.6 M20.3,20 M25.1,24.5
			c0,0.6-0.5,1.2-1.2,1.2s-1.2-0.5-1.2-1.2c0-0.6,0.5-1.2,1.2-1.2S25.1,23.9,25.1,24.5"/>
		<path id="Shape_13_" class="st0" d="M15.6,27.8c-0.1,0-0.2-0.1-0.3-0.2s0-0.2,0.1-0.3l2.6-1.5v-5.8c0-0.1,0.1-0.2,0.1-0.2
			c0.1,0,0.2,0,0.3,0c0.1,0,0.1,0.1,0.1,0.2v6c0,0.1-0.1,0.2-0.1,0.2l-2.7,1.6C15.7,27.8,15.7,27.8,15.6,27.8z M11.6,18.4
			c-0.2,0-0.3-0.1-0.3-0.3V15c0-0.2,0.1-0.3,0.3-0.3s0.3,0.1,0.3,0.3v3.2C11.9,18.3,11.8,18.4,11.6,18.4z M14,21.3c0,0-0.1,0-0.1,0
			L2.9,15c-0.1,0-0.1-0.1-0.1-0.2c0-0.1,0.1-0.2,0.1-0.2c0.1,0,0.2,0,0.3,0l10.9,6.3c0.1,0.1,0.2,0.2,0.1,0.3
			C14.2,21.2,14.1,21.3,14,21.3z M15.7,29.5c-0.1,0-0.2-0.1-0.3-0.2c0-0.1,0-0.3,0.1-0.3l8.1-4.6c0.1,0,0.2,0,0.3,0
			c0.1,0.1,0.1,0.1,0.1,0.2c0,0.1-0.1,0.2-0.1,0.2l-8.1,4.6C15.8,29.5,15.7,29.5,15.7,29.5z M3.7,18.4c-1,0-1.7,0.8-1.7,1.7
			c0,1,0.8,1.7,1.7,1.7c1,0,1.7-0.8,1.7-1.8C5.4,19.2,4.7,18.4,3.7,18.4z M3.7,22.5c-1.3,0-2.3-1-2.3-2.3c0-1.3,1-2.3,2.3-2.3
			c1.3,0,2.3,1,2.3,2.3C6,21.5,5,22.5,3.7,22.5z"/>
		<path id="Shape_14_" class="st0" d="M12.6,40.2c-0.1,0-0.1,0-0.2-0.1c-0.1-0.1-0.1-0.1-0.1-0.2V25.2l-6.7-3.8
			c-0.1-0.1-0.2-0.2-0.1-0.4c0.1-0.1,0.2-0.2,0.4-0.1l6.8,3.9c0.1,0.1,0.1,0.1,0.1,0.2v14.8c0,0.1,0,0.1-0.1,0.2
			C12.7,40.1,12.6,40.2,12.6,40.2"/>
	</g>
</g>
</svg>
