<svg xmlns="http://www.w3.org/2000/svg" width="110" height="40" viewBox="0 0 110 40">
    <g fill="none" fill-rule="evenodd">
        <text fill="#8DC63F" font-family="Raleway-Light, Raleway" font-size="24.419" font-weight="300">
            <tspan x="32.499" y="34.249">Bons</tspan>
        </text>
        <text fill="#1B1A19" font-family="Raleway-Light, Raleway" font-size="24.419" font-weight="300">
            <tspan x="88.931" y="34.249">AI</tspan>
        </text>
        <path fill="#8DC63F" d="M25.96 11.07a1.172 1.172 0 1 1-2.344 0 1.172 1.172 0 0 1 2.344 0"/>
        <path fill="#1B1A19" d="M23.213 39.917H2.23a.277.277 0 0 1 0-.555h20.983a.277.277 0 0 1 0 .555"/>
        <path fill="#8DC63F" d="M24.95 17.908a1.172 1.172 0 1 1-2.345 0 1.172 1.172 0 0 1 2.344 0M3.537 19.934a1.172 1.172 0 1 1-2.344 0 1.172 1.172 0 0 1 2.344 0M8.55 9.276a1.172 1.172 0 1 1-2.344 0 1.172 1.172 0 0 1 2.345 0M17.687 7.343a1.172 1.172 0 1 1-2.345 0 1.172 1.172 0 0 1 2.345 0M13.843 2.48a1.172 1.172 0 1 1-2.344 0 1.172 1.172 0 0 1 2.344 0M19.027 19.225a.055.055 0 0 1-.055-.05 1.634 1.634 0 0 0-1.193-1.416.055.055 0 1 1 .029-.107 1.746 1.746 0 0 1 1.274 1.512.055.055 0 0 1-.05.06h-.005M20.508 15.859a.517.517 0 1 0 .517.896.517.517 0 0 0-.517-.896M10.16 20.427a.517.517 0 1 0 .517.896.517.517 0 0 0-.517-.896"/>
        <path fill="#8DC63F" d="M18.07 17.751l.097.17 2.45-1.415-.098-.169-2.45 1.414M14.826 27.651l.002.225 2.992-1.735-.098-.17-2.896 1.68M14.697 10.122a.517.517 0 1 1-1.035 0 .517.517 0 0 1 1.035 0"/>
        <path fill="#8DC63F" d="M14.276 13.094v-2.942a.108.108 0 1 0-.217 0v7.45c0 .083.09.135.162.094l1.576-.895a.108.108 0 0 0 .055-.094V12.57a.108.108 0 0 0-.162-.094l-1.252.711a.109.109 0 0 1-.162-.094M11.188 22.101v-.635a.108.108 0 0 1 .217 0v2.314c0 .083-.09.135-.162.094l-1.576-.895a.108.108 0 0 1-.054-.094v-1.306c0-.084.09-.136.162-.095l1.251.712a.108.108 0 0 0 .162-.095M15.013 23.468l1.189-.675a.086.086 0 0 1 .128.074v2.1c0 .03-.017.06-.044.074l-1.188.676a.086.086 0 0 1-.128-.075v-2.1c0-.03.016-.058.043-.074M19.88 17.803l.732-.416a.053.053 0 0 1 .079.046v1.292c0 .019-.01.036-.027.046l-.731.415a.052.052 0 0 1-.079-.045v-1.292c0-.02.01-.037.027-.046M17.68 23.405l.731-.416a.053.053 0 0 1 .079.046v2.693c0 .019-.01.036-.027.046l-.731.415a.053.053 0 0 1-.079-.046V23.45c0-.018.01-.036.027-.045M18.835 22.787l1.177-.644a.053.053 0 0 1 .078.046v2.052c0 .019-.01.036-.026.046l-1.177.644a.053.053 0 0 1-.079-.046v-2.052c0-.019.01-.036.027-.046"/>
        <path fill="#8DC63F" d="M14.911 10.818l.731-.415a.052.052 0 0 1 .079.045v1.292c0 .02-.01.037-.027.046l-.731.416a.053.053 0 0 1-.079-.046v-1.292c0-.019.01-.036.027-.046M17.004 10.148l.732-.416a.053.053 0 0 1 .078.046v.737c0 .02-.01.037-.026.046l-.732.416a.053.053 0 0 1-.078-.046v-.737c0-.02.01-.037.026-.046M18.15 9.467l.73-.416a.053.053 0 0 1 .08.046v.737c0 .02-.011.037-.027.046l-.732.415a.053.053 0 0 1-.078-.045v-.738c0-.018.01-.036.026-.045M6.892 11.884l-.531-.301a.038.038 0 0 0-.057.033v.535c0 .014.007.026.019.033l.53.302a.038.038 0 0 0 .058-.033v-.536a.039.039 0 0 0-.02-.033M4.698 10.61l-.531-.302a.038.038 0 0 0-.057.033v.535c0 .014.007.026.02.033l.53.302a.038.038 0 0 0 .057-.034v-.535a.038.038 0 0 0-.02-.033M19.275 8.856l.731-.416a.053.053 0 0 1 .08.046v.737c0 .019-.011.036-.028.046l-.731.415a.053.053 0 0 1-.079-.046v-.737c0-.018.01-.036.027-.045M17.216 12.433l1.499-.851a.108.108 0 0 1 .16.093v3.312a.108.108 0 0 1-.054.094l-1.499.851a.108.108 0 0 1-.16-.093v-3.312c0-.039.02-.074.054-.094"/>
        <path fill="#8DC63F" d="M18.677 12.211l2.71-1.523a.108.108 0 0 1 .16.094v.744a.108.108 0 0 1-.054.094l-2.71 1.523a.108.108 0 0 1-.161-.093v-.745c0-.039.021-.074.055-.094M17.708 21.951l2.71-1.523a.108.108 0 0 1 .16.094v.744a.108.108 0 0 1-.054.094l-2.71 1.523a.108.108 0 0 1-.161-.094v-.744c0-.039.02-.075.055-.094M19.414 22.48l1.503-.845a.06.06 0 0 1 .09.052v.413a.06.06 0 0 1-.03.052l-1.504.845a.06.06 0 0 1-.09-.052v-.413a.06.06 0 0 1 .03-.052M11.951 16.637l-.742-.422a.054.054 0 0 0-.08.047v1.31c0 .02.01.037.028.046l.741.422c.036.02.08-.005.08-.046v-1.31c0-.02-.01-.038-.027-.047M11.951 7.697l-.742-.422a.053.053 0 0 0-.08.047v1.31c0 .02.01.037.028.047l.741.422c.036.02.08-.006.08-.047v-1.31c0-.02-.01-.037-.027-.047M6.619 13.835L3.606 12.17a.092.092 0 0 0-.137.08v2.257c0 .033.017.063.046.08l3.013 1.665a.092.092 0 0 0 .138-.08v-2.257a.092.092 0 0 0-.047-.08M7.71 23.638l-3.013-1.666a.092.092 0 0 0-.137.08v2.257c0 .033.018.064.047.08l3.013 1.666a.092.092 0 0 0 .137-.08v-2.257a.092.092 0 0 0-.046-.08M10.614 25.204l-1.599-.884a.049.049 0 0 0-.072.043v1.972c0 .018.009.034.024.042l1.598.884a.049.049 0 0 0 .073-.043v-1.972a.049.049 0 0 0-.024-.042M6.935 20.351l-1.507-.832a.046.046 0 0 0-.069.04v1.128c0 .017.01.032.024.04l1.506.833a.046.046 0 0 0 .069-.04V20.39a.045.045 0 0 0-.023-.04"/>
        <path fill="#8DC63F" d="M5.865 19.195l-.437-.234a.046.046 0 0 0-.069.04v1.128c0 .017.01.032.024.04l.437.234a.046.046 0 0 0 .069-.04v-1.128a.046.046 0 0 0-.024-.04M8.754 11.943l-.438-.234a.046.046 0 0 0-.069.04v1.129c0 .017.01.032.024.04l.437.234a.046.046 0 0 0 .069-.04v-1.129a.046.046 0 0 0-.023-.04M9.862 11.276l-.437-.233a.046.046 0 0 0-.069.04v1.128c0 .017.01.032.023.04l.438.234a.046.046 0 0 0 .069-.04v-1.129a.046.046 0 0 0-.024-.04M10.612 6.162a.517.517 0 1 1 0-1.034.517.517 0 0 1 0 1.034zM9.511 6.499a.517.517 0 1 1-1.034 0 .517.517 0 0 1 1.034 0M11.13 11.71a.517.517 0 1 1-1.036 0 .517.517 0 0 1 1.035 0M6.666 20.355a.055.055 0 0 1-.056-.055c0-.72.452-1.373 1.125-1.626a.055.055 0 1 1 .04.104A1.634 1.634 0 0 0 6.72 20.3c0 .03-.025.055-.055.055M4.86 17.07a.517.517 0 1 1-.518.895.517.517 0 0 1 .518-.896"/>
        <path fill="#8DC63F" d="M7.298 18.961l-.098.17-2.449-1.415.098-.169 2.45 1.414M11.983 9.56l-.098.17-1.322-.764.098-.169 1.322.764M10.66 7.314l-.098.169-1.323-.764.098-.169 1.323.764M15.351 19.277c0-.186.032-.364.088-.531l-.628.357a.113.113 0 0 0-.057.098v2.767c0 .087.093.141.168.099l1.567-.89a.113.113 0 0 0 .057-.099v-.199a1.673 1.673 0 0 1-1.195-1.602M11.983 21.173l-.098.169-1.322-.764.098-.169 1.322.764M13.35 14.971l.097.17 1.322-.764-.098-.17-1.322.764"/>
        <path fill="#1B1A19" d="M12.67 39.917a.277.277 0 0 1-.276-.278V4.507a.277.277 0 0 1 .554 0v35.132a.277.277 0 0 1-.277.278M15.65 39.615a.277.277 0 0 1-.277-.277V28.32a.277.277 0 1 1 .554 0v11.017a.277.277 0 0 1-.277.277M9.79 39.615a.277.277 0 0 1-.277-.277V27.765a.277.277 0 0 1 .555 0v11.573a.277.277 0 0 1-.278.277"/>
        <path fill="#1B1A19" d="M12.67.731c-.964 0-1.748.785-1.748 1.75 0 .964.784 1.748 1.749 1.748A1.75 1.75 0 0 0 14.42 2.48 1.75 1.75 0 0 0 12.67.731zm0 4.053a2.306 2.306 0 0 1-2.303-2.304A2.306 2.306 0 0 1 12.671.177a2.306 2.306 0 0 1 2.303 2.303 2.306 2.306 0 0 1-2.303 2.304zM22.01 5.765a1.172 1.172 0 1 1-2.343 0 1.172 1.172 0 0 1 2.344 0M16.515 17.721a.277.277 0 0 1-.278-.277V9.356a.277.277 0 1 1 .555 0v8.088a.277.277 0 0 1-.277.277"/>
        <path fill="#1B1A19" d="M16.515 5.581a1.75 1.75 0 0 0-1.75 1.75 1.75 1.75 0 0 0 1.75 1.748 1.75 1.75 0 0 0 1.748-1.749 1.75 1.75 0 0 0-1.748-1.749zm0 4.053A2.306 2.306 0 0 1 14.21 7.33a2.306 2.306 0 0 1 2.304-2.303 2.306 2.306 0 0 1 2.303 2.303 2.306 2.306 0 0 1-2.303 2.304zM7.386 7.527c-.965 0-1.75.785-1.75 1.75 0 .963.785 1.748 1.75 1.748.964 0 1.749-.785 1.749-1.749 0-.964-.785-1.75-1.75-1.75zm0 4.052a2.306 2.306 0 0 1-2.304-2.303 2.306 2.306 0 0 1 2.304-2.303 2.306 2.306 0 0 1 2.303 2.303 2.306 2.306 0 0 1-2.303 2.303zM23.777 16.159a1.75 1.75 0 0 0-1.749 1.749 1.75 1.75 0 0 0 1.75 1.749c.964 0 1.748-.785 1.748-1.75 0-.964-.784-1.748-1.749-1.748zm0 4.052a2.306 2.306 0 0 1-2.303-2.303 2.306 2.306 0 0 1 2.303-2.304 2.306 2.306 0 0 1 2.304 2.304 2.306 2.306 0 0 1-2.304 2.303zM24.788 9.322c-.964 0-1.75.784-1.75 1.749 0 .964.786 1.749 1.75 1.749.965 0 1.75-.785 1.75-1.75 0-.964-.785-1.748-1.75-1.748zm0 4.052a2.306 2.306 0 0 1-2.303-2.303 2.306 2.306 0 0 1 2.303-2.304 2.306 2.306 0 0 1 2.304 2.304 2.306 2.306 0 0 1-2.304 2.303z"/>
        <path fill="#1B1A19" d="M12.67 19.664a.274.274 0 0 1-.138-.037l-5.285-3.052a.277.277 0 0 1-.138-.24v-5.033a.277.277 0 0 1 .554 0v4.873l5.146 2.972a.278.278 0 0 1-.138.517M14.255 39.917a.277.277 0 0 1-.277-.278V23.156c0-.1.053-.191.14-.24l7.495-4.28a.277.277 0 1 1 .275.482l-7.356 4.2v16.321a.277.277 0 0 1-.277.278"/>
        <path fill="#1B1A19" d="M14.255 29.288a.277.277 0 0 1-.277-.277V18.784c0-.1.053-.19.138-.24l5.147-2.971V13.99c0-.102.055-.195.144-.244l3.45-1.88a.277.277 0 0 1 .265.488l-3.305 1.8v1.578c0 .099-.053.19-.139.24l-5.146 2.971v10.067a.277.277 0 0 1-.277.277M16.515 12.325a.277.277 0 0 1-.14-.518l4.187-2.416V6.937a.277.277 0 1 1 .554 0v2.614c0 .099-.053.19-.139.24l-4.324 2.496a.278.278 0 0 1-.138.038M7.175 20.41a1.172 1.172 0 1 0 2.343 0 1.172 1.172 0 0 0-2.343 0M9.095 14.172a1.172 1.172 0 1 0 2.344 0 1.172 1.172 0 0 0-2.344 0"/>
        <path fill="#1B1A19" d="M12.67 29.502a.274.274 0 0 1-.138-.037l-4.324-2.497a.277.277 0 0 1-.138-.24v-5.147a.277.277 0 1 1 .554 0v4.987l4.185 2.416a.278.278 0 0 1-.138.518M2.365 7.343a1.172 1.172 0 1 0 2.344 0 1.172 1.172 0 0 0-2.344 0"/>
        <path fill="#1B1A19" d="M7.378 13.65a.277.277 0 0 1-.137-.037l-3.842-2.207a.278.278 0 0 1-.139-.24v-2.65a.277.277 0 0 1 .555 0v2.489l3.702 2.127a.277.277 0 0 1-.139.517M18.196 19.387a1.172 1.172 0 1 1-2.344 0 1.172 1.172 0 0 1 2.344 0"/>
        <path fill="#8DC63F" d="M19.488 17.978l-.731.415a.052.052 0 0 0-.027.046v.019a1.934 1.934 0 0 1 .208 1.245l.602-.342a.053.053 0 0 0 .027-.046v-1.292a.053.053 0 0 0-.079-.045"/>
        <path fill="#1B1A19" d="M23.738 24.255a1.172 1.172 0 1 1-2.344 0 1.172 1.172 0 0 1 2.344 0M14.276 27.544a.277.277 0 0 1-.139-.517l2.61-1.506v-5.832a.277.277 0 1 1 .554 0v5.992c0 .099-.053.19-.139.24l-2.747 1.586a.275.275 0 0 1-.139.037M10.267 18.185a.277.277 0 0 1-.277-.277v-3.18a.277.277 0 1 1 .554 0v3.18a.277.277 0 0 1-.277.277M12.622 21.033a.275.275 0 0 1-.139-.037l-10.9-6.294a.277.277 0 1 1 .277-.48l10.9 6.294a.277.277 0 0 1-.138.517"/>
        <path fill="#1B1A19" d="M14.332 29.213a.276.276 0 0 1-.138-.518l8.107-4.628a.277.277 0 1 1 .275.482l-8.107 4.628a.275.275 0 0 1-.137.036M2.365 18.185c-.964 0-1.749.784-1.749 1.749 0 .964.785 1.749 1.75 1.749.964 0 1.749-.785 1.749-1.75 0-.964-.785-1.748-1.75-1.748zm0 4.053a2.306 2.306 0 0 1-2.303-2.304 2.306 2.306 0 0 1 2.303-2.304 2.306 2.306 0 0 1 2.304 2.304 2.306 2.306 0 0 1-2.304 2.304z"/>
        <path fill="#1B1A19" d="M11.22 39.917a.277.277 0 0 1-.277-.278V24.982l-6.69-3.838a.277.277 0 1 1 .277-.48l6.828 3.917c.086.05.14.141.14.24V39.64a.277.277 0 0 1-.278.278"/>
        <path fill="#8DC63F" d="M8.66 14.172c0-.22.045-.43.125-.62l-.74-.421a.113.113 0 0 0-.17.099v2.784c0 .04.022.078.058.098l1.576.896a.113.113 0 0 0 .17-.099v-1.243a1.606 1.606 0 0 1-1.019-1.494M21.094 20.306a.517.517 0 1 0 1.035 0 .517.517 0 0 0-1.035 0"/>
        <path fill="#8DC63F" d="M19.946 21.12l.098.17 1.322-.764-.098-.169-1.322.764M22.528 8.204a.517.517 0 1 1-1.035 0 .517.517 0 0 1 1.035 0"/>
    </g>
</svg>
