<?xml version="1.0" encoding="UTF-8"?>
<svg width="1987px" height="715px" viewBox="0 0 1987 715" version="1.1" xmlns="http://www.w3.org/2000/svg" xmlns:xlink="http://www.w3.org/1999/xlink">
    <!-- Generator: Sketch 48.2 (47327) - http://www.bohemiancoding.com/sketch -->
    <title>bonsai-logo-color</title>
    <desc>Created with Sketch.</desc>
    <defs></defs>
    <g id="Page-1" stroke="none" stroke-width="1" fill="none" fill-rule="evenodd">
        <g id="bonsai-simple" transform="translate(0.000000, -59.000000)" fill-rule="nonzero">
            <g id="bonsai-logo-color" transform="translate(0.000000, 59.000000)">
                <g id="Group" transform="translate(663.000000, 400.000000)">
                    <path d="M145.404,310.253 L0.58,310.253 L0.58,0.538 L144.968,0.538 C188.59,0.538 215.635,40.67 215.635,79.494 C215.635,110.465 198.623,139.256 171.141,151.47 C206.474,161.939 228.722,193.347 228.722,229.989 C228.722,275.355 191.207,310.253 145.404,310.253 Z M22.827,20.604 L22.827,144.49 L136.244,144.49 C169.833,144.49 193.825,114.391 193.825,82.547 C193.825,48.958 171.142,20.604 138.862,20.604 L22.827,20.604 Z M148.458,163.248 L22.827,163.248 L22.827,290.187 L145.405,290.187 C179.866,290.187 206.475,259.215 206.475,226.935 C206.475,193.783 181.61,163.248 148.458,163.248 Z" id="Shape" fill="#8DC540"></path>
                    <path d="M267.547,197.272 C267.547,133.584 315.967,79.493 378.346,79.493 C441.161,79.493 489.582,133.584 489.582,197.272 C489.582,260.523 441.598,314.615 378.346,314.615 C314.658,314.615 267.547,260.524 267.547,197.272 Z M378.346,294.985 C426.766,294.985 467.335,250.927 467.335,196.836 C467.335,143.618 426.767,99.123 378.346,99.123 C330.362,99.123 289.794,144.054 289.794,198.145 C289.794,251.8 329.49,294.985 378.346,294.985 Z" id="Shape" fill="#8DC540"></path>
                    <path d="M726.447,310.253 L704.636,310.253 L704.636,183.75 C704.636,125.297 688.496,99.56 652.289,99.56 C613.902,99.56 574.643,129.659 562.865,169.791 L562.865,310.253 L541.054,310.253 L541.054,83.419 L561.12,83.419 L561.12,137.51 C579.441,103.049 618.265,79.493 658.833,79.493 C708.125,79.493 726.447,115.699 726.447,179.823 L726.447,310.253 Z" id="Shape" fill="#8DC540"></path>
                    <path d="M771.378,279.718 L782.283,264.886 C806.711,286.697 832.448,297.166 863.42,297.166 C902.68,297.166 929.289,279.717 929.289,250.054 C929.289,221.7 904.424,214.284 856.877,202.943 C805.403,190.729 781.847,182.441 781.847,146.671 C781.847,101.304 819.798,79.494 865.165,79.494 C900.498,79.494 929.289,92.58 944.12,111.338 L931.906,123.116 C917.074,105.667 890.902,96.943 863.856,96.943 C830.267,96.943 802.785,110.902 802.785,143.618 C802.785,169.791 820.234,175.026 862.111,185.058 C919.256,198.581 950.663,208.614 950.663,247.873 C950.663,288.441 916.202,314.615 863.419,314.615 C828.522,314.615 794.934,302.837 771.378,279.718 Z" id="Shape" fill="#8DC540"></path>
                    <path d="M971.167,310.253 L1102.905,0.538 L1121.226,0.538 L1252.964,310.253 L1228.972,310.253 L1185.786,208.178 L1037.908,208.178 L994.722,310.253 L971.167,310.253 Z M1112.065,27.583 L1043.143,189.856 L1179.679,189.856 L1112.065,27.583 Z" id="Shape" fill="#000000"></path>
                    <polygon id="Shape" fill="#000000" points="1301.385 310.253 1301.385 0.974 1323.632 0.974 1323.632 310.253"></polygon>
                </g>
                <path d="M456.686,710.256 L81.836,710.256 C79.101,710.256 76.884,708.039 76.884,705.304 C76.884,702.569 79.101,700.352 81.836,700.352 L456.686,700.352 C459.421,700.352 461.638,702.569 461.638,705.304 C461.637,708.04 459.421,710.256 456.686,710.256 Z" id="Shape" fill="#221F1F"></path>
                <circle id="Oval" fill="#8DC540" cx="466.758" cy="317.088" r="20.938"></circle>
                <circle id="Oval" fill="#8DC540" cx="84.253" cy="353.285" r="20.938"></circle>
                <circle id="Oval" fill="#8DC540" cx="41.405" cy="237.443" r="20.938"></circle>
                <circle id="Oval" fill="#8DC540" cx="173.811" cy="162.89" r="20.938"></circle>
                <circle id="Oval" fill="#8DC540" cx="337.017" cy="128.368" r="20.938"></circle>
                <circle id="Oval" fill="#8DC540" cx="484.818" cy="194.95" r="20.938"></circle>
                <circle id="Oval" fill="#8DC540" cx="268.353" cy="41.488" r="20.938"></circle>
                <path d="M268.353,710.256 C265.618,710.256 263.401,708.039 263.401,705.304 L263.401,77.687 C263.401,74.952 265.618,72.735 268.353,72.735 C271.088,72.735 273.305,74.952 273.305,77.687 L273.305,705.305 C273.305,708.04 271.088,710.256 268.353,710.256 Z" id="Shape" fill="#221F1F"></path>
                <path d="M321.571,704.867 C318.836,704.867 316.619,702.65 316.619,699.915 L316.619,503.107 C316.619,500.372 318.836,498.155 321.571,498.155 C324.306,498.155 326.523,500.372 326.523,503.107 L326.523,699.915 C326.523,702.651 324.306,704.867 321.571,704.867 Z" id="Shape" fill="#221F1F"></path>
                <path d="M216.897,704.867 C214.162,704.867 211.945,702.65 211.945,699.915 L211.945,493.179 C211.945,490.444 214.162,488.227 216.897,488.227 C219.632,488.227 221.849,490.444 221.849,493.179 L221.849,699.916 C221.849,702.651 219.632,704.867 216.897,704.867 Z" id="Shape" fill="#221F1F"></path>
                <path d="M268.353,82.639 C245.662,82.639 227.203,64.18 227.203,41.489 C227.203,18.798 245.662,0.339 268.353,0.339 C291.042,0.339 309.501,18.798 309.501,41.489 C309.501,64.18 291.042,82.639 268.353,82.639 Z M268.353,10.242 C251.124,10.242 237.106,24.26 237.106,41.489 C237.106,58.718 251.124,72.736 268.353,72.736 C285.582,72.736 299.598,58.718 299.598,41.489 C299.598,24.26 285.582,10.242 268.353,10.242 Z" id="Shape" fill="#221F1F"></path>
                <circle id="Oval" fill="#221F1F" cx="414.265" cy="100.168" r="20.938"></circle>
                <path d="M337.017,313.754 C334.282,313.754 332.065,311.537 332.065,308.802 L332.065,164.326 C332.065,161.591 334.282,159.374 337.017,159.374 C339.752,159.374 341.969,161.591 341.969,164.326 L341.969,308.802 C341.969,311.537 339.752,313.754 337.017,313.754 Z" id="Shape" fill="#221F1F"></path>
                <path d="M337.017,169.278 C314.328,169.278 295.869,150.819 295.869,128.13 C295.869,105.439 314.328,86.98 337.017,86.98 C359.708,86.98 378.167,105.439 378.167,128.13 C378.167,150.819 359.708,169.278 337.017,169.278 Z M337.017,96.883 C319.788,96.883 305.772,110.901 305.772,128.13 C305.772,145.359 319.788,159.375 337.017,159.375 C354.246,159.375 368.264,145.359 368.264,128.13 C368.264,110.901 354.245,96.883 337.017,96.883 Z" id="Shape" fill="#221F1F"></path>
                <path d="M173.939,204.039 C151.248,204.039 132.789,185.58 132.789,162.891 C132.789,140.2 151.248,121.741 173.939,121.741 C196.63,121.741 215.089,140.2 215.089,162.891 C215.089,185.58 196.63,204.039 173.939,204.039 Z M173.939,131.644 C156.71,131.644 142.692,145.662 142.692,162.891 C142.692,180.12 156.71,194.136 173.939,194.136 C191.168,194.136 205.186,180.12 205.186,162.891 C205.186,145.662 191.167,131.644 173.939,131.644 Z" id="Shape" fill="#221F1F"></path>
                <path d="M466.757,358.237 C444.068,358.237 425.609,339.778 425.609,317.089 C425.609,294.398 444.068,275.939 466.757,275.939 C489.448,275.939 507.907,294.398 507.907,317.089 C507.907,339.778 489.449,358.237 466.757,358.237 Z M466.757,285.842 C449.528,285.842 435.512,299.86 435.512,317.089 C435.512,334.318 449.528,348.334 466.757,348.334 C483.986,348.334 498.004,334.318 498.004,317.089 C498.004,299.86 483.986,285.842 466.757,285.842 Z" id="Shape" fill="#221F1F"></path>
                <path d="M484.818,236.1 C462.127,236.1 443.668,217.641 443.668,194.95 C443.668,172.259 462.127,153.8 484.818,153.8 C507.509,153.8 525.968,172.259 525.968,194.95 C525.968,217.641 507.509,236.1 484.818,236.1 Z M484.818,163.703 C467.589,163.703 453.571,177.721 453.571,194.95 C453.571,212.179 467.589,226.197 484.818,226.197 C502.047,226.197 516.065,212.179 516.065,194.95 C516.065,177.721 502.047,163.703 484.818,163.703 Z" id="Shape" fill="#221F1F"></path>
                <path d="M268.349,348.459 C267.508,348.459 266.656,348.246 265.877,347.796 L171.462,293.284 C169.93,292.4 168.986,290.766 168.986,288.996 L168.986,199.088 C168.986,196.353 171.203,194.136 173.938,194.136 C176.673,194.136 178.89,196.353 178.89,199.088 L178.89,286.137 L270.829,339.22 C273.197,340.588 274.009,343.617 272.641,345.984 C271.725,347.571 270.059,348.459 268.349,348.459 Z" id="Shape" fill="#221F1F"></path>
                <path d="M296.648,710.256 C293.913,710.256 291.696,708.039 291.696,705.304 L291.696,410.851 C291.696,409.073 292.65,407.431 294.193,406.551 L428.106,330.108 C430.474,328.75 433.505,329.574 434.861,331.953 C436.217,334.328 435.391,337.352 433.016,338.708 L301.6,413.726 L301.6,705.305 C301.6,708.04 299.383,710.256 296.648,710.256 Z" id="Shape" fill="#221F1F"></path>
                <path d="M296.648,520.394 C293.913,520.394 291.696,518.177 291.696,515.442 L291.696,332.745 C291.696,330.975 292.64,329.341 294.172,328.457 L386.109,275.374 L386.109,247.112 C386.109,245.3 387.099,243.63 388.691,242.764 L450.318,209.194 C452.72,207.886 455.728,208.772 457.036,211.173 C458.344,213.575 457.458,216.583 455.057,217.891 L396.013,250.054 L396.013,278.233 C396.013,280.003 395.069,281.637 393.537,282.521 L301.6,335.603 L301.6,515.442 C301.6,518.177 299.383,520.394 296.648,520.394 Z" id="Shape" fill="#221F1F"></path>
                <path d="M337.021,217.349 C335.311,217.349 333.646,216.461 332.729,214.873 C331.361,212.505 332.174,209.476 334.541,208.109 L409.313,164.938 L409.313,121.107 C409.313,118.372 411.53,116.155 414.265,116.155 C417,116.155 419.217,118.372 419.217,121.107 L419.217,167.797 C419.217,169.567 418.273,171.201 416.741,172.085 L339.493,216.686 C338.713,217.136 337.862,217.349 337.021,217.349 Z" id="Shape" fill="#221F1F"></path>
                <circle id="Oval" fill="#221F1F" cx="191.105" cy="361.775" r="20.938"></circle>
                <circle id="Oval" fill="#221F1F" cx="225.415" cy="250.36" r="20.938"></circle>
                <path d="M268.349,524.207 C267.508,524.207 266.656,523.994 265.877,523.544 L188.629,478.945 C187.097,478.061 186.153,476.427 186.153,474.657 L186.153,382.714 C186.153,379.979 188.37,377.762 191.105,377.762 C193.84,377.762 196.057,379.979 196.057,382.714 L196.057,471.798 L270.829,514.967 C273.197,516.335 274.009,519.364 272.641,521.731 C271.725,523.319 270.059,524.207 268.349,524.207 Z" id="Shape" fill="#221F1F"></path>
                <circle id="Oval" fill="#221F1F" cx="105.191" cy="128.368" r="20.938"></circle>
                <path d="M173.807,241.017 C172.969,241.017 172.122,240.806 171.345,240.359 L102.726,200.938 C101.188,200.054 100.24,198.418 100.24,196.644 L100.24,149.306 C100.24,146.571 102.457,144.354 105.192,144.354 C107.927,144.354 110.144,146.571 110.144,149.306 L110.144,193.777 L176.277,231.77 C178.648,233.134 179.467,236.159 178.105,238.53 C177.188,240.125 175.521,241.017 173.807,241.017 Z" id="Shape" fill="#221F1F"></path>
                <circle id="Oval" fill="#221F1F" cx="346.114" cy="343.507" r="20.938"></circle>
                <circle id="Oval" fill="#221F1F" cx="445.126" cy="430.474" r="20.938"></circle>
                <circle id="Oval" fill="#221F1F" cx="133.938" cy="440.938" r="20.938"></circle>
                <path d="M297.031,489.238 C295.321,489.238 293.656,488.35 292.739,486.762 C291.371,484.394 292.184,481.365 294.551,479.998 L341.162,453.086 L341.162,348.911 C341.162,346.176 343.379,343.959 346.114,343.959 C348.849,343.959 351.066,346.176 351.066,348.911 L351.066,455.945 C351.066,457.715 350.122,459.349 348.59,460.233 L299.503,488.574 C298.724,489.026 297.872,489.238 297.031,489.238 Z" id="Shape" fill="#221F1F"></path>
                <path d="M225.414,322.04 C222.679,322.04 220.462,319.823 220.462,317.088 L220.462,260.274 C220.462,257.539 222.679,255.322 225.414,255.322 C228.149,255.322 230.366,257.539 230.366,260.274 L230.366,317.088 C230.366,319.823 228.149,322.04 225.414,322.04 Z" id="Shape" fill="#221F1F"></path>
                <path d="M267.479,372.922 C266.638,372.922 265.786,372.709 265.007,372.259 L70.276,259.831 C67.908,258.463 67.096,255.434 68.464,253.067 C69.832,250.699 72.863,249.889 75.228,251.255 L269.959,363.682 C272.327,365.05 273.139,368.079 271.771,370.446 C270.854,372.034 269.189,372.922 267.479,372.922 Z" id="Shape" fill="#221F1F"></path>
                <path d="M298.023,519.05 C296.303,519.05 294.632,518.154 293.719,516.553 C292.363,514.178 293.189,511.154 295.564,509.798 L440.384,427.124 C442.754,425.764 445.783,426.59 447.139,428.969 C448.495,431.344 447.669,434.368 445.294,435.724 L300.474,518.398 C299.7,518.841 298.857,519.05 298.023,519.05 Z" id="Shape" fill="#221F1F"></path>
                <path d="M258.768416,518.581054 C257.934416,518.581054 257.091416,518.372054 256.317416,517.929054 L132.09,446.6 C129.715,445.244 128.889,442.22 130.245,439.845 C131.601,437.466 134.63,436.64 137,438 L261.227416,509.329054 C263.602416,510.685054 264.428416,513.709054 263.072416,516.084054 C262.159416,517.685054 260.488416,518.581054 258.768416,518.581054 Z" id="Shape" fill="#221F1F"></path>
                <path d="M41.339,278.612 C34.207,278.612 27.17,276.742 20.83,273.08 C1.181,261.737 -5.577,236.52 5.768,216.87 C17.113,197.22 42.328,190.465 61.98,201.808 C81.629,213.155 88.385,238.37 77.04,258.02 C71.545,267.539 62.672,274.347 52.055,277.193 C48.511,278.141 44.912,278.61 41.339,278.612 Z M41.457,206.203 C30.65,206.203 20.126,211.807 14.344,221.82 C5.731,236.741 10.862,255.889 25.781,264.502 C33.009,268.676 41.429,269.788 49.492,267.624 C57.554,265.463 64.291,260.295 68.464,253.067 C77.079,238.146 71.948,218.998 57.028,210.383 C52.121,207.551 46.755,206.203 41.457,206.203 Z" id="Shape" fill="#221F1F"></path>
                <path d="M84.253,394.435 C61.562,394.435 43.103,375.976 43.103,353.285 C43.103,330.596 61.562,312.137 84.253,312.137 C106.944,312.137 125.403,330.596 125.403,353.285 C125.403,375.976 106.944,394.435 84.253,394.435 Z M84.253,322.04 C67.024,322.04 53.006,336.056 53.006,353.285 C53.006,370.514 67.024,384.532 84.253,384.532 C101.482,384.532 115.5,370.514 115.5,353.285 C115.5,336.056 101.482,322.04 84.253,322.04 Z" id="Shape" fill="#221F1F"></path>
                <path d="M242.434,710.256 C239.699,710.256 237.482,708.039 237.482,705.304 L237.482,443.461 L117.987,374.9 C115.616,373.54 114.795,370.513 116.157,368.142 C117.519,365.769 120.54,364.949 122.915,366.312 L244.897,436.299 C246.435,437.181 247.384,438.819 247.384,440.593 L247.384,705.305 C247.385,708.04 245.169,710.256 242.434,710.256 Z" id="Shape" fill="#221F1F"></path>
            </g>
        </g>
    </g>
</svg>