<svg xmlns="http://www.w3.org/2000/svg" width="69" height="86" viewBox="0 0 69 86">
    <path fill="#47C24C" fill-rule="nonzero" d="M40.45 3h-11.9A10.97 10.97 0 0 1 32 11a10.97 10.97 0 0 1-3.45 8h11.9A10.97 10.97 0 0 1 37 11a10.97 10.97 0 0 1 3.45-8zM36 22v3h11v26h-2v9h-3v-9H27v9h-3v-9h-2V25h11v-3H21c-6.075 0-11-4.925-11-11S14.925 0 21 0h27c6.075 0 11 4.925 11 11s-4.925 11-11 11H36zM9.646 46.765L12.47 51h4.914v3h-5.324l-2.154 3.5L12.06 61h5.324v3h-7l-4-6.5 3.27-5.315-2.827-4.241a6 6 0 1 1-.03-11.891l1.264-2.528A6 6 0 1 1 17.917 28H22v3h-4.341a6.002 6.002 0 0 1-6.916 3.868l-1.16 2.32A5.991 5.991 0 0 1 12 42a5.99 5.99 0 0 1-2.354 4.765zm52.528 1.179l-2.828 4.24 3.271 5.316-4 6.5h-7v-3h5.324l2.154-3.5L56.94 54h-5.324v-3h4.914l2.823-4.235A5.99 5.99 0 0 1 57 42c0-1.97.95-3.719 2.417-4.813l-1.16-2.319A6.002 6.002 0 0 1 51.341 31H47v-3h4.083A6.002 6.002 0 0 1 63 29a5.986 5.986 0 0 1-2.06 4.525l1.263 2.527a6 6 0 1 1-.03 11.891zM49.539 77.906A8.984 8.984 0 0 1 53 85v1H35v-1a8.978 8.978 0 0 1 3-6.708V60h11.54v17.906zM31 78.292A8.978 8.978 0 0 1 34 85v1H16v-1a8.984 8.984 0 0 1 3.46-7.094V60H31v18.292zm10-2.53h5.54V63H41v12.763zm-18.54 0H28V63h-5.54v12.763zM25 79a6.002 6.002 0 0 0-5.659 4H30.66A6.002 6.002 0 0 0 25 79zm19 0a6.002 6.002 0 0 0-5.659 4H49.66A6.002 6.002 0 0 0 44 79zM25 48h19V28H25v20zm38-3a3 3 0 1 0 0-6 3 3 0 0 0 0 6zm-6-13a3 3 0 1 0 0-6 3 3 0 0 0 0 6zm-45 0a3 3 0 1 0 0-6 3 3 0 0 0 0 6zM6 45a3 3 0 1 0 0-6 3 3 0 0 0 0 6zm22-14h13v3H28v-3zm0 6h13v3H28v-3zM21 3a8 8 0 1 0 0 16 8 8 0 0 0 0-16zm0 3a5 5 0 1 1 0 10 5 5 0 0 1 0-10zm0 3a2 2 0 1 0 0 4 2 2 0 0 0 0-4zm27-6a8 8 0 1 0 0 16 8 8 0 0 0 0-16zm0 3a5 5 0 1 1 0 10 5 5 0 0 1 0-10zm0 3a2 2 0 1 0 0 4 2 2 0 0 0 0-4z"/>
</svg>
