<svg xmlns="http://www.w3.org/2000/svg" width="20" height="20" viewBox="0 0 20 20">
    <path fill="#FFF" fill-rule="evenodd" d="M10 0C4.477 0 0 4.59 0 10.254c0 4.53 2.865 8.372 6.84 9.728.5.095.682-.222.682-.494 0-.243-.009-.888-.014-1.743-2.782.62-3.369-1.375-3.369-1.375-.454-1.184-1.11-1.5-1.11-1.5-.908-.636.07-.623.07-.623 1.002.072 1.53 1.057 1.53 1.057.893 1.566 2.341 1.114 2.911.851.09-.662.35-1.114.635-1.37-2.22-.26-4.555-1.139-4.555-5.067 0-1.12.39-2.035 1.03-2.752-.104-.26-.447-1.302.097-2.713 0 0 .84-.276 2.75 1.05A9.378 9.378 0 0 1 10 4.958c.849.005 1.705.118 2.503.345 1.91-1.326 2.747-1.05 2.747-1.05.546 1.411.203 2.453.1 2.713.64.717 1.028 1.632 1.028 2.752 0 3.938-2.338 4.805-4.566 5.059.359.316.679.942.679 1.899 0 1.37-.013 2.476-.013 2.812 0 .274.18.594.688.493C17.137 18.622 20 14.782 20 10.254 20 4.59 15.523 0 10 0"/>
</svg>
