<svg xmlns="http://www.w3.org/2000/svg" width="20" height="20" viewBox="0 0 20 20">
    <g fill="none" fill-rule="nonzero">
        <path fill="#1C9957" d="M18.182 18.485V3.333c0-.836-.679-1.515-1.515-1.515H1.515C.68 1.818 0 2.497 0 3.333v15.152C0 19.32.679 20 1.515 20h15.152c.836 0 1.515-.679 1.515-1.515z"/>
        <path fill="#3E7BF1" d="M1.877 20h15.337c.846 0-7.669-8.182-7.669-8.182S1.031 20 1.877 20z"/>
        <path fill="#CBCCC9" d="M18.182 19.032V3.696c0-.847-8.182 7.668-8.182 7.668s8.182 8.514 8.182 7.668z"/>
        <path fill="#EFEFEF" d="M15.837 20c.793 0 1.436-.643 1.436-1.435v-.118l-7.538-7.538-1.553 1.553L15.72 20h.117z"/>
        <path fill="#FFD73D" d="M18.182 3.333c0-.836-.679-1.515-1.515-1.515h-.125L0 18.361v.124C0 19.32.679 20 1.515 20h.124L18.182 3.458v-.125z"/>
        <path fill="#D73F35" d="M15 0c-2.762 0-5 2.232-5 4.985 0 3.397 3.832 4.635 4.666 9.897.055.339.059.573.334.573s.28-.234.334-.573C16.168 9.62 20 8.382 20 4.985A4.992 4.992 0 0 0 15 0z"/>
        <path fill="#752622" d="M17.273 5.455a1.818 1.818 0 1 1-3.636 0 1.818 1.818 0 0 1 3.636 0z"/>
        <path fill="#FFF" d="M4.598 4.974v1.042h1.514c-.2.632-.736 1.083-1.514 1.083-.926 0-1.676-.736-1.676-1.644 0-.91.75-1.647 1.676-1.647.417 0 .798.151 1.09.397l.782-.767a2.795 2.795 0 0 0-1.872-.71c-1.536 0-2.78 1.222-2.78 2.727s1.244 2.727 2.78 2.727c2.432 0 2.849-2.14 2.62-3.204l-2.62-.004z"/>
    </g>
</svg>
