<svg xmlns="http://www.w3.org/2000/svg" width="85" height="85" viewBox="0 0 85 85">
    <path fill="#C8D0DA" fill-rule="evenodd" d="M40.659.072c2.602-.193 5.23.003 7.772.579.443.1.935.179 1.246.547.464.5.464 1.347-.007 1.844-.368.418-.982.543-1.5.368C43 2.138 37.408 2.695 32.595 4.968c-1.204.593-2.389 1.237-3.496 2.001-.842.644-1.713 1.258-2.488 1.987a24.547 24.547 0 0 0-7.458 12.974c-.504 2.215-.618 4.499-.522 6.765.065.772.165 1.536.254 2.305 1.364.507 2.77.915 4.213 1.111 1.37.132 2.752.336 4.134.197 1.132-.072 2.267-.161 3.377-.4a20.62 20.62 0 0 0 8.548-4.085c3.156-2.545 5.54-6.037 6.722-9.918.175-.618.822-1.065 1.464-.965.443.075.943.079 1.307.38.214.16.353.4.453.642 1.229 2.97 3.2 5.622 5.641 7.71 3 2.544 6.737 4.248 10.65 4.702.36-3.802-.19-7.68-1.557-11.247-1.928-4.992-5.52-9.342-10.114-12.09-.496-.357-1.181-.511-1.474-1.09-.336-.6-.125-1.422.453-1.787a1.372 1.372 0 0 1 1.46-.032 26.88 26.88 0 0 1 3.517 2.294c.11-.196.222-.403.396-.554 1.171-.979 2.439-1.862 3.85-2.462 2.952-1.39 6.347-1.765 9.546-1.15 3.43.671 6.633 2.505 8.918 5.16a16.282 16.282 0 0 1 3.763 7.82c.25 1.361.31 2.751.279 4.13.003 15.186 0 30.37.003 45.556.132 3.631-.957 7.312-3.117 10.239-2.395 3.355-6.165 5.685-10.228 6.364-.996.1-2 .23-3.003.19-1.71-.068-3.423-.329-5.023-.958-.382-.154-.81-.25-1.11-.55-.25-.243-.329-.59-.482-.887-.14-.26-.232-.55-.197-.847.029-.396.282-.714.479-1.043 1.467-2.384 2.138-5.236 1.938-8.027-.074-.732.543-1.433 1.279-1.458.692-.064 1.374.49 1.446 1.187.257 3.177-.465 6.422-2.01 9.209 1.324.414 2.716.657 4.102.593.56-.811.996-1.697 1.388-2.598.275-.647 1.104-.98 1.75-.697.635.24 1.017.997.807 1.648-.143.44-.357.847-.564 1.254a13.165 13.165 0 0 0 7.197-4.975c1.61-2.173 2.51-4.846 2.61-7.54-.003-15.218 0-30.435-.003-45.652-.004-1.772.06-3.577-.375-5.314-.414-1.633-1.064-3.224-2.035-4.607-1.29-1.872-3.042-3.441-5.11-4.403-3.462-1.762-7.743-1.78-11.239-.089-1.213.511-2.26 1.33-3.28 2.14.996.951 1.931 1.97 2.774 3.06.182-.282.414-.536.728-.658 2.438-1.122 5.166-1.633 7.847-1.411.686.053 1.246.704 1.218 1.39 0 .729-.664 1.376-1.393 1.336a13.675 13.675 0 0 0-5.705.826c-.425.168-.832.375-1.267.511 3.17 4.893 4.705 10.814 4.33 16.633-.05.618-.053 1.247-.253 1.84-.04.393-.072.822-.364 1.126-.35.429-.94.522-1.457.443 0 .461-.004.922.007 1.38.5.16 1.021.286 1.478.557.329.193.71.297.996.568.607.572 1.34 1.033 1.8 1.748.307.508.657.994.824 1.573 1.029 2.305.715 5.128-.71 7.197-.428.586-1.339.708-1.906.254-.575-.411-.715-1.272-.318-1.855.75-1.143 1-2.616.621-3.935-.182-.546-.386-1.09-.703-1.576-.25-.418-.668-.69-1.032-1-.314-.28-.693-.465-1.057-.662v8.449c.01.436-.19.876-.546 1.136a1.369 1.369 0 1 1-2.192-1.13c0-4.352.003-8.708 0-13.06a23.398 23.398 0 0 1-9.415-4.282 23.396 23.396 0 0 1-6.362-7.39c-1.264 2.862-3.089 5.478-5.377 7.611a23.278 23.278 0 0 1-11.6 5.922c-1.327.243-2.68.308-4.027.4-.517.033-1.035-.035-1.553-.057-1.313-.1-2.638-.196-3.923-.51-.004 3.998 0 7.997-.004 12a1.41 1.41 0 0 1-.457 1.111 1.378 1.378 0 0 1-1.567.186 1.353 1.353 0 0 1-.714-1.197c.003-2.741.003-5.486.003-8.227-1.478.55-2.677 1.837-3.045 3.38-.464 1.598.071 3.382 1.185 4.582.325.33.482.815.379 1.27-.129.689-.85 1.19-1.546 1.068-.557-.057-.91-.533-1.243-.93-.842-1.104-1.488-2.405-1.62-3.806-.35-2.52.682-5.174 2.638-6.8.371-.24.678-.569 1.078-.762.682-.357 1.393-.747 2.174-.782-.003-.633 0-1.266-.003-1.895-.429-.175-.89-.296-1.289-.54-.364-.289-.707-.66-.8-1.132-.068-.307-.107-.618-.157-.93-.153-1.386-.325-2.772-.26-4.17-.004-4.832 1.36-9.646 3.813-13.802-.729-.332-1.51-.511-2.285-.708-.879-.221-1.785-.253-2.682-.303-.617-.04-1.3.196-1.856-.172-.636-.379-.836-1.304-.41-1.912a1.37 1.37 0 0 1 1.081-.615c2.628-.196 5.295.3 7.69 1.39a26.967 26.967 0 0 1 2.671-3.07c-1.128-.896-2.435-1.532-3.784-2.022-2.85-.95-6.027-.893-8.826.207-1.035.45-2.067.933-2.967 1.62-3.145 2.254-5.166 5.946-5.498 9.788-.054.575-.046 1.154-.068 1.73v47.31c.1 2.69.996 5.357 2.603 7.526a13.198 13.198 0 0 0 7.201 4.982c-.26-.576-.675-1.151-.607-1.812.079-.747.853-1.319 1.589-1.172.46.075.867.403 1.039.84.375.89.839 1.74 1.357 2.558 1.392.011 2.78-.19 4.105-.618a16.508 16.508 0 0 1-2.053-8.47c.022-.468-.007-.99.304-1.376.396-.56 1.235-.722 1.814-.35.432.257.696.765.65 1.265-.211 2.902.538 5.868 2.12 8.31.29.407.414.957.186 1.422-.16.307-.26.643-.45.932-.257.361-.703.486-1.096.636-1.892.75-3.949 1.03-5.977 1.012-.882-.079-1.77-.107-2.642-.272-3.374-.69-6.526-2.48-8.797-5.078a16.296 16.296 0 0 1-4.016-9.253C-.048 66.42.02 65.351.009 64.286V19.27c-.057-2.533.39-5.1 1.439-7.412a16.381 16.381 0 0 1 4.305-5.764c2.253-1.905 5.038-3.181 7.958-3.6 2.592-.378 5.27-.088 7.726.816.925.39 1.857.772 2.71 1.311.64.372 1.225.83 1.81 1.28.907-.68 1.792-1.387 2.77-1.959C32.324 1.73 36.448.37 40.66.072h-.001zM33.94 42.375c.443-.082.903.004 1.325.143.753.375 1.274 1.176 1.342 2.016-.004.525-.11 1.09-.482 1.483-.489.582-1.27.918-2.031.829-.575-.082-1.14-.354-1.5-.819-.46-.557-.643-1.354-.407-2.044.15-.482.421-.954.853-1.23.279-.174.586-.3.9-.378zm15.626.279c.757-.229 1.621.025 2.182.568.403.458.692 1.062.671 1.683-.071.63-.321 1.27-.832 1.67-.368.385-.917.475-1.42.525-.697.014-1.343-.354-1.829-.822-.371-.497-.493-1.158-.432-1.762.082-.897.814-1.64 1.66-1.862zm14.06 6.372c.382-.582 1.235-.765 1.824-.396.393.225.657.657.668 1.115.025.729-.057 1.458-.046 2.19-.011 4.607 0 9.217-.007 13.827.017.726-.636 1.372-1.357 1.355-.732.028-1.4-.633-1.375-1.366-.007-1.58-.003-3.162-.003-4.742-2.539 4.807-6.78 8.688-11.8 10.768-.557.24-1.128.443-1.696.654 0 3.417-.003 6.83 0 10.246.029.465-.182.94-.564 1.208-.582.443-1.496.3-1.913-.304-.24-.307-.279-.707-.265-1.083.008-3.116.004-6.229.004-9.341-1.603.3-3.238.428-4.87.475-1.232-.054-2.467-.136-3.688-.311-.003 3.33.004 6.661-.003 9.992-.004.772-.76 1.416-1.518 1.308-.685-.064-1.25-.704-1.217-1.393V72.735c-3.188-.926-6.187-2.495-8.733-4.632a23.459 23.459 0 0 1-5.952-7.44c-.014 1.819.004 3.638-.007 5.453.022.733-.639 1.39-1.367 1.365-.728.025-1.389-.629-1.368-1.358-.003-4.942 0-9.885-.003-14.828-.007-.407.146-.79.296-1.161.3-.672 1.193-.965 1.835-.618.46.221.757.715.76 1.222.136 2.284.586 4.55 1.4 6.69 1.14 2.902 2.896 5.575 5.184 7.698a21.031 21.031 0 0 0 8.983 5.036c1.578.446 3.217.604 4.845.69.982.07 1.96-.044 2.934-.119 2.907-.243 5.72-1.233 8.248-2.666 4.495-2.587 7.993-6.897 9.521-11.869.554-1.797.947-3.66.964-5.546.072-.543-.06-1.158.286-1.626zm-17.48 2.18c.279-.719 1.214-1.062 1.889-.687.414.197.653.619.753 1.047.268 1.033.925 1.93 1.75 2.595.382.307.896.497 1.11.972.34.658.029 1.551-.653 1.848-.46.225-1.018.14-1.428-.154a8.441 8.441 0 0 1-1.54-1.244c-1.313 1.287-3.059 2.127-4.89 2.295-2.085.221-4.267-.354-5.902-1.684-.568-.464-1.175-.943-1.5-1.615-.382-.911.479-2.005 1.454-1.84.735.057 1.05.804 1.595 1.183.996.857 2.314 1.29 3.62 1.254a5.327 5.327 0 0 0 4.06-1.955c-.21-.64-.607-1.336-.318-2.015zm25.174 9.292a1.378 1.378 0 0 1 1.624.576c.254.378.197.854.2 1.286v8.334c.018.53-.31 1.04-.789 1.255-.6.293-1.385.064-1.731-.504-.264-.383-.218-.862-.218-1.301V61.82a1.377 1.377 0 0 1 .914-1.322zm-59.13.372c.828-.34 1.842.332 1.839 1.229.007 2.956.003 5.911.003 8.87.022.468-.182.947-.57 1.215-.594.447-1.525.286-1.929-.336-.289-.382-.239-.886-.239-1.336.004-2.773 0-5.55 0-8.327a1.38 1.38 0 0 1 .896-1.315z"/>
</svg>
