<svg xmlns="http://www.w3.org/2000/svg" width="192" height="63" viewBox="0 0 192 63">
    <g fill="#C8D0DA" fill-rule="evenodd">
        <path fill-rule="nonzero" d="M4 3a1 1 0 0 0-1 1v55a1 1 0 0 0 1 1h184a1 1 0 0 0 1-1V4a1 1 0 0 0-1-1H4zm0-3h184a4 4 0 0 1 4 4v55a4 4 0 0 1-4 4H4a4 4 0 0 1-4-4V4a4 4 0 0 1 4-4z"/>
        <path d="M34.864 20.864v1.584c0 .49-.139.939-.416 1.344L22.576 40.56h12V44H16.992v-1.696c0-.213.037-.419.112-.616.075-.197.17-.381.288-.552l11.904-16.848H17.744v-3.424h17.12zM47.92 40.832c.97 0 1.816-.088 2.536-.264.72-.176 1.405-.419 2.056-.728v-4.208h-2.896c-.277 0-.496-.077-.656-.232a.76.76 0 0 1-.24-.568V32.4h7.696v9.36c-.587.427-1.197.797-1.832 1.112-.635.315-1.312.573-2.032.776-.72.203-1.49.355-2.312.456-.821.101-1.707.152-2.656.152-1.685 0-3.237-.293-4.656-.88a11.062 11.062 0 0 1-3.68-2.448c-1.035-1.045-1.843-2.293-2.424-3.744-.581-1.45-.872-3.035-.872-4.752 0-1.739.283-3.333.848-4.784.565-1.45 1.368-2.699 2.408-3.744 1.04-1.045 2.301-1.856 3.784-2.432 1.483-.576 3.147-.864 4.992-.864 1.888 0 3.523.28 4.904.84 1.381.56 2.552 1.288 3.512 2.184l-1.248 1.952c-.245.395-.57.592-.976.592-.256 0-.517-.085-.784-.256a60.94 60.94 0 0 0-1.048-.608 7.09 7.09 0 0 0-1.184-.528 9.652 9.652 0 0 0-1.456-.368 10.72 10.72 0 0 0-1.864-.144c-1.141 0-2.173.192-3.096.576a6.55 6.55 0 0 0-2.36 1.648c-.65.715-1.152 1.573-1.504 2.576-.352 1.003-.528 2.123-.528 3.36 0 1.333.187 2.52.56 3.56.373 1.04.896 1.917 1.568 2.632a6.755 6.755 0 0 0 2.4 1.64c.928.379 1.941.568 3.04.568zm33.888-19.968v1.712c0 .512-.056.925-.168 1.24a7.193 7.193 0 0 1-.328.792L72.56 42.656c-.181.373-.437.69-.768.952-.33.261-.779.392-1.344.392h-2.864l8.96-17.68c.373-.725.79-1.35 1.248-1.872H66.72a.876.876 0 0 1-.64-.272.876.876 0 0 1-.272-.64v-2.672h16zm10.304 23.392c-1.195 0-2.285-.16-3.272-.48-.987-.32-1.832-.773-2.536-1.36a6.105 6.105 0 0 1-1.64-2.128c-.39-.832-.584-1.76-.584-2.784 0-1.365.336-2.52 1.008-3.464.672-.944 1.717-1.645 3.136-2.104-1.13-.47-1.976-1.136-2.536-2-.56-.864-.84-1.904-.84-3.12 0-.875.179-1.69.536-2.448a6.008 6.008 0 0 1 1.496-1.976c.64-.56 1.405-.997 2.296-1.312.89-.315 1.87-.472 2.936-.472 1.067 0 2.045.157 2.936.472.89.315 1.656.752 2.296 1.312a6.008 6.008 0 0 1 1.496 1.976c.357.757.536 1.573.536 2.448 0 1.216-.283 2.256-.848 3.12-.565.864-1.408 1.53-2.528 2 1.419.459 2.464 1.16 3.136 2.104.672.944 1.008 2.099 1.008 3.464 0 1.024-.195 1.952-.584 2.784a6.105 6.105 0 0 1-1.64 2.128c-.704.587-1.55 1.04-2.536 1.36-.987.32-2.077.48-3.272.48zm0-3.088c.65 0 1.221-.093 1.712-.28a3.53 3.53 0 0 0 1.24-.776c.336-.33.59-.725.76-1.184.17-.459.256-.955.256-1.488 0-1.27-.352-2.23-1.056-2.88-.704-.65-1.675-.976-2.912-.976-1.237 0-2.208.325-2.912.976-.704.65-1.056 1.61-1.056 2.88 0 .533.085 1.03.256 1.488.17.459.424.853.76 1.184.336.33.75.59 1.24.776.49.187 1.061.28 1.712.28zm0-10.688c.64 0 1.179-.101 1.616-.304.437-.203.79-.472 1.056-.808.267-.336.456-.72.568-1.152.112-.432.168-.877.168-1.336 0-.437-.07-.853-.208-1.248a3.027 3.027 0 0 0-.624-1.048 2.984 2.984 0 0 0-1.056-.728c-.427-.181-.933-.272-1.52-.272s-1.093.09-1.52.272a3.067 3.067 0 0 0-1.064.728c-.283.304-.49.653-.624 1.048-.133.395-.2.81-.2 1.248 0 .459.056.904.168 1.336.112.432.301.816.568 1.152.267.336.619.605 1.056.808.437.203.976.304 1.616.304zm18.56 13.776c-1.195 0-2.285-.16-3.272-.48-.987-.32-1.832-.773-2.536-1.36a6.105 6.105 0 0 1-1.64-2.128c-.39-.832-.584-1.76-.584-2.784 0-1.365.336-2.52 1.008-3.464.672-.944 1.717-1.645 3.136-2.104-1.13-.47-1.976-1.136-2.536-2-.56-.864-.84-1.904-.84-3.12 0-.875.179-1.69.536-2.448a6.008 6.008 0 0 1 1.496-1.976c.64-.56 1.405-.997 2.296-1.312.89-.315 1.87-.472 2.936-.472 1.067 0 2.045.157 2.936.472.89.315 1.656.752 2.296 1.312a6.008 6.008 0 0 1 1.496 1.976c.357.757.536 1.573.536 2.448 0 1.216-.283 2.256-.848 3.12-.565.864-1.408 1.53-2.528 2 1.419.459 2.464 1.16 3.136 2.104.672.944 1.008 2.099 1.008 3.464 0 1.024-.195 1.952-.584 2.784a6.105 6.105 0 0 1-1.64 2.128c-.704.587-1.55 1.04-2.536 1.36-.987.32-2.077.48-3.272.48zm0-3.088c.65 0 1.221-.093 1.712-.28a3.53 3.53 0 0 0 1.24-.776c.336-.33.59-.725.76-1.184.17-.459.256-.955.256-1.488 0-1.27-.352-2.23-1.056-2.88-.704-.65-1.675-.976-2.912-.976-1.237 0-2.208.325-2.912.976-.704.65-1.056 1.61-1.056 2.88 0 .533.085 1.03.256 1.488.17.459.424.853.76 1.184.336.33.75.59 1.24.776.49.187 1.061.28 1.712.28zm0-10.688c.64 0 1.179-.101 1.616-.304.437-.203.79-.472 1.056-.808.267-.336.456-.72.568-1.152.112-.432.168-.877.168-1.336 0-.437-.07-.853-.208-1.248a3.027 3.027 0 0 0-.624-1.048 2.984 2.984 0 0 0-1.056-.728c-.427-.181-.933-.272-1.52-.272s-1.093.09-1.52.272a3.067 3.067 0 0 0-1.064.728c-.283.304-.49.653-.624 1.048-.133.395-.2.81-.2 1.248 0 .459.056.904.168 1.336.112.432.301.816.568 1.152.267.336.619.605 1.056.808.437.203.976.304 1.616.304zm10.88 2.208h8.288v3.296h-8.288v-3.296zM153.04 44h-3.328c-.373 0-.68-.093-.92-.28a1.592 1.592 0 0 1-.52-.696l-1.728-4.72h-9.584l-1.728 4.72c-.085.245-.253.47-.504.672-.25.203-.557.304-.92.304h-3.344l9.088-23.136h4.4L153.04 44zm-14.976-8.736h7.376l-2.816-7.696c-.128-.341-.27-.744-.424-1.208a29.443 29.443 0 0 1-.456-1.512 53.31 53.31 0 0 1-.44 1.52c-.144.47-.285.88-.424 1.232l-2.816 7.664zM175.76 44h-3.328c-.373 0-.68-.093-.92-.28a1.592 1.592 0 0 1-.52-.696l-1.728-4.72h-9.584l-1.728 4.72c-.085.245-.253.47-.504.672-.25.203-.557.304-.92.304h-3.344l9.088-23.136h4.4L175.76 44zm-14.976-8.736h7.376l-2.816-7.696c-.128-.341-.27-.744-.424-1.208a29.443 29.443 0 0 1-.456-1.512 53.31 53.31 0 0 1-.44 1.52c-.144.47-.285.88-.424 1.232l-2.816 7.664z"/>
    </g>
</svg>
