<svg xmlns="http://www.w3.org/2000/svg" width="20" height="18" viewBox="0 0 20 18">
    <g fill="none" fill-rule="evenodd">
        <path d="M0-1h20v20H0z"/>
        <path fill="#FFF" d="M19.167 17.333h-4.052v-5.859c0-1.533-.634-2.58-2.028-2.58-1.066 0-1.659.706-1.935 1.387-.103.245-.087.585-.087.925v6.127H7.051s.052-10.378 0-11.322h4.014v1.777c.237-.777 1.52-1.886 3.567-1.886 2.54 0 4.535 1.629 4.535 5.136v6.295zM2.99 4.595h-.026C1.672 4.595.833 3.73.833 2.632c0-1.118.864-1.965 2.183-1.965 1.318 0 2.129.845 2.155 1.962 0 1.097-.837 1.966-2.18 1.966zM1.296 6.011h3.573v11.322H1.296V6.011z"/>
    </g>
</svg>
