<?xml version="1.0" standalone="no"?>
<!DOCTYPE svg PUBLIC "-//W3C//DTD SVG 20010904//EN"
 "http://www.w3.org/TR/2001/REC-SVG-20010904/DTD/svg10.dtd">
<svg version="1.0" xmlns="http://www.w3.org/2000/svg"
 width="314.000000pt" height="314.000000pt" viewBox="0 0 314.000000 314.000000"
 preserveAspectRatio="xMidYMid meet">
<metadata>
Created by potrace 1.11, written by Peter Selinger 2001-2013
</metadata>
<g transform="translate(0.000000,314.000000) scale(0.100000,-0.100000)"
fill="#000000" stroke="none">
<path d="M1488 3060 c-69 -37 -101 -114 -84 -205 9 -45 71 -110 115 -120 l31
-7 0 -529 0 -530 -32 17 c-18 9 -50 28 -70 41 l-38 23 0 90 c0 50 4 90 9 90 4
0 20 12 35 26 56 56 17 154 -61 154 -25 0 -43 -8 -64 -29 -41 -42 -40 -84 6
-127 34 -31 35 -36 35 -103 0 -39 -3 -71 -7 -71 -5 0 -42 19 -83 43 l-75 43
-3 177 c-2 167 -1 177 16 177 34 0 98 56 116 99 21 54 20 96 -3 148 -34 74
-131 118 -206 93 -44 -14 -91 -53 -110 -91 -19 -36 -19 -122 0 -158 19 -38 71
-81 106 -88 27 -5 29 -9 29 -54 l0 -48 -117 68 -118 67 -3 93 c-3 91 -3 92 28
121 42 39 42 90 0 132 -27 26 -36 30 -68 25 -43 -7 -82 -46 -82 -83 0 -35 26
-81 50 -89 18 -6 20 -15 20 -115 l0 -109 145 -82 145 -83 0 -112 0 -112 198
-114 c172 -100 197 -117 200 -141 4 -29 54 -56 -630 339 l-138 79 6 42 c21
142 -128 249 -256 183 -57 -29 -84 -72 -88 -146 -5 -73 11 -110 65 -151 31
-24 46 -28 103 -28 64 0 74 3 135 49 8 6 142 -66 408 -220 l397 -229 0 -287
c0 -159 -2 -288 -5 -288 -2 0 -16 5 -30 12 -25 11 -25 11 -25 143 0 153 9 138
-127 215 l-93 52 0 52 c0 46 3 55 29 74 68 50 34 162 -49 162 -88 0 -128 -111
-59 -163 23 -16 29 -29 29 -58 l0 -38 -127 73 -127 73 3 42 c4 59 -15 105 -59
145 -62 56 -147 61 -220 12 -123 -81 -76 -294 70 -313 58 -8 107 5 144 37 19
17 37 30 40 30 4 0 68 -35 141 -77 l134 -77 3 -135 3 -135 52 -31 53 -30 0
-437 0 -438 -282 -2 c-275 -3 -283 -4 -283 -23 0 -20 7 -20 810 -20 803 0 810
0 810 20 0 19 -8 20 -282 23 l-283 2 0 413 0 412 215 123 c180 103 218 121
234 113 64 -35 141 7 141 74 0 48 -45 95 -90 95 -41 0 -90 -47 -90 -87 0 -27
-15 -37 -249 -171 -137 -78 -251 -142 -255 -142 -3 0 -6 15 -6 34 0 32 4 36
103 92 l102 59 5 158 5 158 164 94 165 94 23 -25 c49 -53 128 -67 198 -35 48
22 69 44 90 94 49 117 -35 237 -167 237 -99 0 -160 -60 -168 -167 l-5 -65
-140 -80 c-77 -44 -146 -82 -152 -85 -23 -9 -14 15 17 45 75 76 -6 196 -100
147 -59 -31 -65 -122 -9 -153 22 -13 29 -24 29 -47 0 -27 -8 -34 -75 -72 -41
-24 -77 -43 -80 -43 -3 0 -4 61 -3 136 l3 136 190 110 c104 60 192 112 195
115 3 2 7 35 10 71 l5 67 109 59 c71 38 114 56 121 50 61 -46 71 -49 135 -49
57 0 72 4 103 28 49 37 70 80 70 142 0 117 -97 193 -218 171 -79 -15 -144
-112 -131 -198 l6 -43 -125 -68 -125 -68 0 -67 0 -67 -81 -45 c-45 -25 -85
-46 -90 -48 -5 -2 -9 72 -9 171 l0 175 160 93 160 92 0 108 c0 69 4 109 10
109 25 0 60 50 60 84 0 53 -37 91 -90 91 -53 0 -90 -38 -90 -91 0 -34 35 -84
60 -84 6 0 10 -35 10 -92 l0 -93 -134 -78 c-74 -42 -137 -77 -140 -77 -3 0 -6
29 -6 65 l0 64 44 19 c129 57 141 241 20 309 -59 34 -139 32 -191 -6 -116 -84
-90 -265 45 -311 l32 -12 0 -287 0 -287 -85 -49 -85 -49 0 -783 0 -783 -35 0
-35 0 0 1304 0 1304 25 6 c40 10 104 74 116 116 25 83 -21 184 -97 216 -46 19
-112 17 -156 -6z m392 -1768 l0 -128 -74 -42 c-40 -23 -76 -42 -80 -42 -3 0
-6 56 -6 124 l0 124 78 46 c42 25 78 45 80 46 1 0 2 -58 2 -128z m-509 -52
l69 -41 0 -105 c0 -58 -4 -104 -8 -102 -5 2 -43 23 -85 47 l-77 45 0 104 c0
119 -8 115 101 52z m44 -296 l25 -16 0 -404 0 -404 -30 0 -30 0 0 420 c0 231
2 420 5 420 3 0 17 -7 30 -16z m355 -429 l0 -395 -25 0 -25 0 0 385 c0 355 1
385 18 394 9 6 20 11 25 11 4 0 7 -178 7 -395z m-220 -20 l0 -375 -30 0 -30 0
0 390 0 391 30 -16 30 -16 0 -374z"/>
</g>
</svg>
